<svg width="1600" height="960" viewBox="0 0 1600 960" fill="none" xmlns="http://www.w3.org/2000/svg">
<rect width="1600" height="960" fill="#E6E6E6"/>
<g filter="url(#filter0_ddii_2107_2)">
<path d="M95.8179 266L100.343 136.748H102.516L193.571 246.811H194.657L190.675 139.283H202.985L198.459 268.534H196.287L105.231 158.471H104.145L108.128 266H95.8179ZM235.798 266L284.494 139.283H295.717L344.413 266H331.198L308.751 206.624H267.658L249.013 266H235.798ZM285.761 148.696L268.926 202.279H307.122L286.847 148.696H285.761ZM500.312 139.283V266H488.002V149.782H486.916L443.108 233.778H437.496L387.715 159.738H386.629L390.611 266H378.301L382.827 136.748H386.447L443.47 221.468H444.556L487.278 139.283H500.312ZM554.61 266V139.283H609.822V148.153L578.143 143.989C572.591 143.265 568.85 142.903 566.919 142.903V198.116C568.488 198.116 572.229 197.935 578.143 197.573L607.831 195.762V204.09L578.143 202.279C572.229 201.917 568.488 201.736 566.919 201.736V262.38C569.092 262.38 572.893 262.017 578.324 261.293L610.365 257.13V266H554.61Z" fill="#E6E6E6"/>
</g>
<g filter="url(#filter1_ddii_2107_2)">
<path d="M105.123 416V334.568H119.665C129.049 334.568 136.339 336.584 141.535 340.617C146.731 344.572 149.329 350.117 149.329 357.252C149.329 364.387 146.731 369.971 141.535 374.004C136.339 377.959 129.049 379.937 119.665 379.937H113.034V416H105.123ZM119.665 337.36H113.034V377.145H119.665C133.857 377.145 140.953 370.514 140.953 357.252C140.953 343.991 133.857 337.36 119.665 337.36ZM170.305 375.284C170.305 369.312 171.352 363.767 173.446 358.648C175.618 353.452 178.604 348.954 182.404 345.154C186.282 341.276 190.78 338.29 195.898 336.196C201.094 334.025 206.678 332.939 212.65 332.939C218.622 332.939 224.167 334.025 229.286 336.196C234.482 338.29 238.98 341.276 242.78 345.154C246.658 348.954 249.644 353.452 251.738 358.648C253.909 363.767 254.995 369.312 254.995 375.284C254.995 381.256 253.909 386.839 251.738 392.036C249.644 397.154 246.658 401.652 242.78 405.53C238.98 409.33 234.482 412.316 229.286 414.488C224.167 416.582 218.622 417.629 212.65 417.629C206.678 417.629 201.094 416.582 195.898 414.488C190.78 412.316 186.282 409.33 182.404 405.53C178.604 401.652 175.618 397.154 173.446 392.036C171.352 386.839 170.305 381.256 170.305 375.284ZM179.147 375.284C179.147 383.194 180.543 390.136 183.334 396.107C186.126 402.001 190.043 406.616 195.084 409.951C200.125 413.208 205.98 414.837 212.65 414.837C219.32 414.837 225.175 413.208 230.216 409.951C235.257 406.616 239.174 401.963 241.966 395.991C244.758 390.019 246.154 383.117 246.154 375.284C246.154 367.451 244.758 360.587 241.966 354.693C239.174 348.721 235.257 344.068 230.216 340.733C225.175 337.398 219.32 335.731 212.65 335.731C205.98 335.731 200.125 337.398 195.084 340.733C190.121 343.991 186.204 348.605 183.334 354.577C180.543 360.471 179.147 367.373 179.147 375.284ZM276.946 413.441L277.644 406.461H278.342C281.367 409.098 284.779 411.153 288.579 412.626C292.38 414.1 296.141 414.837 299.864 414.837C305.137 414.837 309.403 413.402 312.66 410.532C315.917 407.585 317.546 403.669 317.546 398.783C317.546 396.068 316.926 393.548 315.685 391.221C314.521 388.895 312.544 386.529 309.752 384.125C307.037 381.721 303.276 379.123 298.468 376.331C295.133 374.392 291.953 372.376 288.928 370.282C285.904 368.11 283.422 365.628 281.483 362.836C279.544 359.967 278.575 356.554 278.575 352.599C278.575 346.705 280.708 341.974 284.973 338.407C289.239 334.762 294.861 332.939 301.841 332.939C304.943 332.939 308.278 333.288 311.846 333.986C315.413 334.606 318.166 335.421 320.105 336.429L319.524 342.944H318.826C314.405 338.135 308.744 335.731 301.841 335.731C296.878 335.731 292.884 337.011 289.859 339.57C286.834 342.052 285.322 345.425 285.322 349.691C285.322 352.871 286.136 355.624 287.765 357.95C289.471 360.199 291.643 362.255 294.28 364.116C296.916 365.9 299.747 367.645 302.772 369.351C306.262 371.367 309.635 373.5 312.893 375.749C316.228 377.998 318.942 380.713 321.036 383.892C323.207 386.995 324.293 390.911 324.293 395.642C324.293 399.985 323.285 403.824 321.269 407.159C319.252 410.416 316.383 412.975 312.66 414.837C309.015 416.698 304.749 417.629 299.864 417.629C296.761 417.629 293.116 417.241 288.928 416.465C284.74 415.69 280.746 414.682 276.946 413.441ZM351.86 416V334.568H359.771V416H351.86ZM413.298 416V336.894C412.135 336.894 409.73 337.127 406.085 337.592L383.284 340.501V334.568H451.222V340.501L428.421 337.592C424.776 337.127 422.372 336.894 421.209 336.894V416H413.298ZM474.772 416V334.568H482.683V416H474.772ZM511.78 375.284C511.78 369.312 512.827 363.767 514.921 358.648C517.093 353.452 520.079 348.954 523.879 345.154C527.756 341.276 532.255 338.29 537.373 336.196C542.569 334.025 548.153 332.939 554.125 332.939C560.097 332.939 565.642 334.025 570.76 336.196C575.957 338.29 580.455 341.276 584.255 345.154C588.133 348.954 591.118 353.452 593.212 358.648C595.384 363.767 596.47 369.312 596.47 375.284C596.47 381.256 595.384 386.839 593.212 392.036C591.118 397.154 588.133 401.652 584.255 405.53C580.455 409.33 575.957 412.316 570.76 414.488C565.642 416.582 560.097 417.629 554.125 417.629C548.153 417.629 542.569 416.582 537.373 414.488C532.255 412.316 527.756 409.33 523.879 405.53C520.079 401.652 517.093 397.154 514.921 392.036C512.827 386.839 511.78 381.256 511.78 375.284ZM520.621 375.284C520.621 383.194 522.017 390.136 524.809 396.107C527.601 402.001 531.518 406.616 536.559 409.951C541.6 413.208 547.455 414.837 554.125 414.837C560.795 414.837 566.65 413.208 571.691 409.951C576.732 406.616 580.649 401.963 583.441 395.991C586.233 390.019 587.629 383.117 587.629 375.284C587.629 367.451 586.233 360.587 583.441 354.693C580.649 348.721 576.732 344.068 571.691 340.733C566.65 337.398 560.795 335.731 554.125 335.731C547.455 335.731 541.6 337.398 536.559 340.733C531.595 343.991 527.679 348.605 524.809 354.577C522.017 360.471 520.621 367.373 520.621 375.284ZM623.772 416L626.681 332.939H628.077L686.591 403.669H687.289L684.73 334.568H692.641L689.732 417.629H688.336L629.822 346.899H629.124L631.683 416H623.772ZM716.52 416L743.043 334.568H746.999L720.475 416H716.52ZM772.627 416V334.568H798.22C807.216 334.568 815.049 336.274 821.719 339.686C828.389 343.099 833.585 347.868 837.308 353.995C841.03 360.044 842.891 367.141 842.891 375.284C842.891 383.427 841.03 390.562 837.308 396.689C833.585 402.738 828.389 407.469 821.719 410.881C815.049 414.294 807.216 416 798.22 416H772.627ZM798.22 337.36H780.538V413.208H798.22C809.465 413.208 818.229 409.873 824.511 403.203C830.871 396.534 834.05 387.227 834.05 375.284C834.05 363.34 830.871 354.034 824.511 347.364C818.229 340.695 809.465 337.36 798.22 337.36ZM872.027 416V334.568H907.508V340.268L887.15 337.592C883.583 337.127 881.179 336.894 879.938 336.894V372.376C880.946 372.376 883.35 372.259 887.15 372.027L906.229 370.863V376.215L887.15 375.051C883.35 374.819 880.946 374.702 879.938 374.702V413.673C881.334 413.673 883.777 413.441 887.267 412.975L907.857 410.3V416H872.027ZM936.891 416V334.568H951.433C960.817 334.568 968.107 336.584 973.303 340.617C978.499 344.572 981.097 350.117 981.097 357.252C981.097 364.387 978.499 369.971 973.303 374.004C968.107 377.959 960.817 379.937 951.433 379.937H944.802V416H936.891ZM951.433 337.36H944.802V377.145H951.433C965.625 377.145 972.721 370.514 972.721 357.252C972.721 343.991 965.625 337.36 951.433 337.36ZM990.225 416L1021.52 334.568H1028.73L1060.02 416H1051.53L1037.11 377.843H1010.7L998.717 416H990.225ZM1022.33 340.617L1011.51 375.051H1036.06L1023.03 340.617H1022.33ZM1083.55 334.568H1099.14C1107.36 334.568 1113.72 336.313 1118.21 339.803C1122.79 343.215 1125.08 348.023 1125.08 354.228C1125.08 359.036 1123.64 363.03 1120.77 366.21C1117.98 369.39 1113.91 371.522 1108.56 372.608V373.306C1113.68 374.314 1117.86 376.719 1121.12 380.519C1124.38 384.319 1126.82 389.011 1128.45 394.595C1129.92 399.714 1131.36 403.708 1132.75 406.577C1134.23 409.369 1135.82 411.386 1137.52 412.626C1139.31 413.867 1141.4 414.759 1143.81 415.302V416H1139.04C1135.62 416 1132.79 415.38 1130.54 414.139C1128.37 412.898 1126.51 410.804 1124.96 407.857C1123.41 404.91 1121.94 400.838 1120.54 395.642C1118.29 387.654 1115.31 381.992 1111.58 378.657C1107.86 375.323 1103.32 373.655 1097.97 373.655H1097.27V371.561H1097.97C1110.46 371.561 1116.7 365.822 1116.7 354.344C1116.7 343.021 1110.85 337.36 1099.14 337.36H1091.46V416H1083.55V334.568ZM1176.23 416V336.894C1175.06 336.894 1172.66 337.127 1169.01 337.592L1146.21 340.501V334.568H1214.15V340.501L1191.35 337.592C1187.7 337.127 1185.3 336.894 1184.14 336.894V416H1176.23ZM1314.36 334.568V416H1306.45V341.315H1305.75L1277.6 395.293H1274L1242 347.713H1241.31L1243.87 416H1235.95L1238.86 332.939H1241.19L1277.83 387.382H1278.53L1305.99 334.568H1314.36ZM1349.26 416V334.568H1384.74V340.268L1364.38 337.592C1360.81 337.127 1358.41 336.894 1357.17 336.894V372.376C1358.17 372.376 1360.58 372.259 1364.38 372.027L1383.46 370.863V376.215L1364.38 375.051C1360.58 374.819 1358.17 374.702 1357.17 374.702V413.673C1358.56 413.673 1361.01 413.441 1364.5 412.975L1385.09 410.3V416H1349.26ZM1412.37 416L1415.28 332.939H1416.68L1475.19 403.669H1475.89L1473.33 334.568H1481.24L1478.34 417.629H1476.94L1418.42 346.899H1417.73L1420.29 416H1412.37ZM1533.04 416V336.894C1531.88 336.894 1529.47 337.127 1525.83 337.592L1503.03 340.501V334.568H1570.97V340.501L1548.17 337.592C1544.52 337.127 1542.12 336.894 1540.95 336.894V416H1533.04Z" fill="#E6E6E6"/>
</g>
<g filter="url(#filter2_ddii_2107_2)">
<path d="M1261.14 876V835.91H1292.66V842.369H1269.49V852.48H1290.91V858.939H1269.49V869.541H1293.78V876H1261.14ZM1302.28 876V867.294H1310.49V876H1302.28ZM1338.53 876V835.91H1370.05V842.369H1346.88V852.48H1368.29V858.939H1346.88V869.541H1371.17V876H1338.53ZM1412.95 876V851.707C1412.95 851.146 1412.95 850.607 1412.95 850.093C1412.95 849.531 1413.04 847.144 1413.23 842.931C1411.87 848.033 1410.86 851.59 1410.21 853.603L1402.98 876H1397.01L1389.78 853.603L1386.76 842.931C1386.99 847.331 1387.11 850.256 1387.11 851.707V876H1379.67V835.91H1390.9L1398.06 858.307L1398.69 860.484L1400.03 865.89L1401.85 859.43L1409.23 835.91H1420.39V876H1412.95ZM1458.84 876L1455.33 865.749H1440.02L1436.44 876H1428.08L1442.69 835.91H1452.59L1467.19 876H1458.84ZM1447.6 842.089L1447.46 842.72C1447.27 843.423 1447.04 844.218 1446.76 845.108C1446.53 845.95 1444.91 850.724 1441.92 859.43H1453.43L1449.43 847.916L1448.23 844.054L1447.6 842.089ZM1474.93 876V835.91H1483.28V876H1474.93ZM1493.42 876V835.91H1501.78V869.541H1523.26V876H1493.42Z" fill="#DBDBDB"/>
</g>
<g filter="url(#filter3_ddii_2107_2)">
<path d="M1332.16 777.369V789.797H1352.66V796.256H1332.16V811H1323.8V770.91H1353.36V777.369H1332.16ZM1361.65 811V802.294H1369.86V811H1361.65ZM1406.25 777.369V789.797H1426.75V796.256H1406.25V811H1397.89V770.91H1427.45V777.369H1406.25ZM1464.03 811L1460.52 800.749H1445.21L1441.63 811H1433.28L1447.88 770.91H1457.78L1472.38 811H1464.03ZM1452.79 777.089L1452.65 777.72C1452.47 778.423 1452.23 779.218 1451.95 780.108C1451.72 780.95 1450.1 785.724 1447.11 794.43H1458.62L1454.62 782.916L1453.43 779.054L1452.79 777.089ZM1505.75 811L1495.64 795.062L1485.6 811H1476.68L1490.58 789.937L1477.87 770.91H1486.72L1495.64 785.093L1504.55 770.91H1513.4L1501.18 789.937L1514.52 811H1505.75Z" fill="#DBDBDB"/>
</g>
<g filter="url(#filter4_ddii_2107_2)">
<path d="M1246.53 712.369V746H1238.18V712.369H1225.19V705.91H1259.52V712.369H1246.53ZM1266.33 746V737.294H1274.54V746H1266.33ZM1335.5 718.618C1335.5 721.192 1334.92 723.509 1333.75 725.569C1332.58 727.582 1330.89 729.15 1328.69 730.273C1326.49 731.35 1323.9 731.888 1320.9 731.888H1310.93V746H1302.57V705.91H1320.55C1325.37 705.91 1329.07 707.033 1331.64 709.28C1334.22 711.48 1335.5 714.593 1335.5 718.618ZM1327.08 718.759C1327.08 714.546 1324.6 712.44 1319.64 712.44H1310.93V725.428H1319.85C1322.14 725.428 1323.92 724.867 1325.18 723.743C1326.45 722.573 1327.08 720.912 1327.08 718.759ZM1369.55 746V728.799H1352.07V746H1343.72V705.91H1352.07V721.848H1369.55V705.91H1377.91V746H1369.55ZM1427.07 725.78C1427.07 729.945 1426.23 733.62 1424.54 736.802C1422.9 739.939 1420.54 742.349 1417.45 744.034C1414.41 745.719 1410.83 746.562 1406.71 746.562C1400.39 746.562 1395.45 744.713 1391.9 741.015C1388.34 737.317 1386.56 732.239 1386.56 725.78C1386.56 719.367 1388.34 714.359 1391.9 710.755C1395.45 707.104 1400.41 705.278 1406.78 705.278C1413.15 705.278 1418.11 707.104 1421.66 710.755C1425.27 714.406 1427.07 719.414 1427.07 725.78ZM1418.5 725.78C1418.5 721.473 1417.47 718.08 1415.42 715.599C1413.36 713.118 1410.48 711.878 1406.78 711.878C1403.04 711.878 1400.13 713.118 1398.07 715.599C1396.01 718.033 1394.98 721.427 1394.98 725.78C1394.98 730.179 1396.04 733.643 1398.14 736.171C1400.25 738.698 1403.11 739.962 1406.71 739.962C1410.45 739.962 1413.36 738.745 1415.42 736.311C1417.47 733.83 1418.5 730.32 1418.5 725.78ZM1460.1 746L1442.61 715.108C1442.94 718.103 1443.13 720.514 1443.18 722.339V746H1435.73V705.91H1445.28L1463.05 737.013C1462.72 734.158 1462.53 731.56 1462.48 729.22V705.91H1469.93V746H1460.1ZM1480.12 746V705.91H1511.64V712.369H1488.48V722.48H1509.89V728.939H1488.48V739.541H1512.77V746H1480.12Z" fill="#DBDBDB"/>
</g>
<g filter="url(#filter5_ddii_2107_2)">
<path d="M908.265 674.962C913.32 674.962 916.854 672.411 918.866 667.309L926.168 670.117C924.577 674.002 922.26 676.881 919.217 678.753C916.175 680.626 912.524 681.562 908.265 681.562C901.805 681.562 896.82 679.736 893.31 676.085C889.799 672.434 888.044 667.332 888.044 660.78C888.044 654.18 889.729 649.125 893.099 645.614C896.516 642.057 901.454 640.278 907.914 640.278C912.641 640.278 916.479 641.238 919.428 643.157C922.377 645.029 924.436 647.791 925.607 651.442L918.235 653.478C917.626 651.465 916.386 649.874 914.513 648.703C912.688 647.486 910.535 646.878 908.054 646.878C904.263 646.878 901.384 648.072 899.418 650.459C897.452 652.799 896.469 656.239 896.469 660.78C896.469 665.367 897.476 668.877 899.488 671.311C901.548 673.745 904.473 674.962 908.265 674.962ZM972.942 660.78C972.942 664.945 972.099 668.62 970.414 671.802C968.776 674.939 966.412 677.349 963.323 679.034C960.28 680.719 956.7 681.562 952.581 681.562C946.262 681.562 941.324 679.713 937.767 676.015C934.209 672.317 932.431 667.239 932.431 660.78C932.431 654.367 934.209 649.359 937.767 645.755C941.324 642.104 946.285 640.278 952.651 640.278C959.017 640.278 963.978 642.104 967.536 645.755C971.14 649.406 972.942 654.414 972.942 660.78ZM964.376 660.78C964.376 656.473 963.346 653.08 961.287 650.599C959.227 648.118 956.349 646.878 952.651 646.878C948.906 646.878 946.004 648.118 943.945 650.599C941.885 653.033 940.856 656.427 940.856 660.78C940.856 665.179 941.909 668.643 944.015 671.171C946.121 673.698 948.977 674.962 952.581 674.962C956.325 674.962 959.227 673.745 961.287 671.311C963.346 668.83 964.376 665.32 964.376 660.78ZM1014.88 681V656.707C1014.88 656.146 1014.88 655.607 1014.88 655.093C1014.88 654.531 1014.98 652.144 1015.17 647.931C1013.81 653.033 1012.8 656.59 1012.15 658.603L1004.91 681H998.947L991.715 658.603L988.696 647.931C988.93 652.331 989.048 655.256 989.048 656.707V681H981.605V640.91H992.839L1000 663.307L1000.63 665.484L1001.97 670.89L1003.79 664.43L1011.16 640.91H1022.33V681H1014.88ZM1065.41 653.618C1065.41 656.192 1064.82 658.509 1063.65 660.569C1062.48 662.582 1060.8 664.15 1058.6 665.273C1056.4 666.35 1053.8 666.888 1050.8 666.888H1040.83V681H1032.48V640.91H1050.45C1055.27 640.91 1058.97 642.033 1061.55 644.28C1064.12 646.48 1065.41 649.593 1065.41 653.618ZM1056.98 653.759C1056.98 649.546 1054.5 647.44 1049.54 647.44H1040.83V660.428H1049.75C1052.04 660.428 1053.82 659.867 1055.09 658.743C1056.35 657.573 1056.98 655.912 1056.98 653.759ZM1101.92 681L1098.41 670.749H1083.1L1079.52 681H1071.16L1085.77 640.91H1095.67L1110.27 681H1101.92ZM1090.68 647.089L1090.54 647.72C1090.36 648.423 1090.12 649.218 1089.84 650.108C1089.61 650.95 1087.99 655.724 1085 664.43H1096.51L1092.51 652.916L1091.31 649.054L1090.68 647.089ZM1142.37 681L1124.89 650.108C1125.22 653.103 1125.4 655.514 1125.45 657.339V681H1118.01V640.91H1127.56L1145.32 672.013C1144.99 669.158 1144.8 666.56 1144.76 664.22V640.91H1152.2V681H1142.37ZM1182.12 664.571V681H1173.77V664.571L1159.45 640.91H1168.22L1177.84 657.901L1187.6 640.91H1196.38L1182.12 664.571ZM1249.58 681L1246.07 670.749H1230.77L1227.19 681H1218.83L1233.44 640.91H1243.34L1257.94 681H1249.58ZM1238.35 647.089L1238.21 647.72C1238.02 648.423 1237.79 649.218 1237.51 650.108C1237.27 650.95 1235.66 655.724 1232.66 664.43H1244.18L1240.18 652.916L1238.98 649.054L1238.35 647.089ZM1301.41 660.639C1301.41 664.758 1300.59 668.362 1298.96 671.451C1297.32 674.541 1295 676.904 1292 678.543C1289.06 680.181 1285.69 681 1281.89 681H1265.68V640.91H1280.14C1286.88 640.91 1292.1 642.619 1295.8 646.035C1299.54 649.406 1301.41 654.273 1301.41 660.639ZM1292.92 660.639C1292.92 656.333 1291.79 653.056 1289.55 650.81C1287.35 648.516 1284.16 647.369 1280 647.369H1274.03V674.541H1281.12C1284.73 674.541 1287.58 673.3 1289.69 670.82C1291.84 668.292 1292.92 664.899 1292.92 660.639ZM1345.8 660.639C1345.8 664.758 1344.98 668.362 1343.34 671.451C1341.7 674.541 1339.39 676.904 1336.39 678.543C1333.44 680.181 1330.07 681 1326.28 681H1310.06V640.91H1324.53C1331.27 640.91 1336.48 642.619 1340.18 646.035C1343.93 649.406 1345.8 654.273 1345.8 660.639ZM1337.3 660.639C1337.3 656.333 1336.18 653.056 1333.93 650.81C1331.73 648.516 1328.55 647.369 1324.39 647.369H1318.42V674.541H1325.51C1329.11 674.541 1331.97 673.3 1334.07 670.82C1336.23 668.292 1337.3 664.899 1337.3 660.639ZM1381.97 681L1372.63 665.764H1362.8V681H1354.45V640.91H1374.46C1379.23 640.91 1382.91 641.94 1385.48 643.999C1388.1 646.059 1389.41 649.008 1389.41 652.846C1389.41 655.654 1388.62 658.088 1387.03 660.148C1385.43 662.16 1383.28 663.494 1380.57 664.15L1391.38 681H1381.97ZM1380.99 653.197C1380.99 649.359 1378.51 647.44 1373.55 647.44H1362.8V659.235H1373.83C1376.17 659.235 1377.95 658.72 1379.16 657.69C1380.38 656.614 1380.99 655.116 1380.99 653.197ZM1398.84 681V640.91H1430.36V647.369H1407.19V657.48H1428.6V663.939H1407.19V674.541H1431.48V681H1398.84ZM1472.63 669.415C1472.63 673.347 1471.17 676.366 1468.27 678.472C1465.37 680.532 1461.09 681.562 1455.42 681.562C1450.28 681.562 1446.25 680.649 1443.35 678.823C1440.45 676.998 1438.57 674.236 1437.73 670.539L1445.81 669.205C1446.37 671.311 1447.44 672.856 1449.03 673.839C1450.63 674.822 1452.85 675.313 1455.7 675.313C1461.56 675.313 1464.48 673.511 1464.48 669.907C1464.48 668.783 1464.13 667.847 1463.43 667.098C1462.77 666.35 1461.84 665.741 1460.62 665.273C1459.4 664.758 1457.06 664.15 1453.6 663.448C1450.6 662.745 1448.5 662.184 1447.28 661.762C1446.11 661.341 1445.06 660.85 1444.12 660.288C1443.18 659.68 1442.36 658.977 1441.66 658.182C1441.01 657.386 1440.49 656.45 1440.12 655.373C1439.79 654.25 1439.63 652.963 1439.63 651.512C1439.63 647.908 1440.98 645.146 1443.7 643.227C1446.41 641.261 1450.37 640.278 1455.56 640.278C1460.53 640.278 1464.25 641.074 1466.73 642.665C1469.26 644.21 1470.87 646.784 1471.57 650.388L1463.43 651.442C1463.01 649.71 1462.16 648.423 1460.9 647.58C1459.64 646.691 1457.81 646.246 1455.42 646.246C1450.32 646.246 1447.77 647.838 1447.77 651.02C1447.77 652.05 1448.03 652.916 1448.54 653.618C1449.1 654.273 1449.9 654.835 1450.93 655.303C1452.01 655.771 1454.18 656.356 1457.46 657.058C1461.3 657.854 1464.04 658.603 1465.67 659.305C1467.36 660.007 1468.67 660.826 1469.61 661.762C1470.59 662.652 1471.34 663.728 1471.85 664.992C1472.37 666.256 1472.63 667.73 1472.63 669.415ZM1513.77 669.415C1513.77 673.347 1512.32 676.366 1509.41 678.472C1506.51 680.532 1502.23 681.562 1496.57 681.562C1491.42 681.562 1487.39 680.649 1484.49 678.823C1481.59 676.998 1479.72 674.236 1478.87 670.539L1486.95 669.205C1487.51 671.311 1488.59 672.856 1490.18 673.839C1491.77 674.822 1493.99 675.313 1496.85 675.313C1502.7 675.313 1505.62 673.511 1505.62 669.907C1505.62 668.783 1505.27 667.847 1504.57 667.098C1503.91 666.35 1502.98 665.741 1501.76 665.273C1500.54 664.758 1498.2 664.15 1494.74 663.448C1491.75 662.745 1489.64 662.184 1488.42 661.762C1487.25 661.341 1486.2 660.85 1485.26 660.288C1484.33 659.68 1483.51 658.977 1482.81 658.182C1482.15 657.386 1481.64 656.45 1481.26 655.373C1480.93 654.25 1480.77 652.963 1480.77 651.512C1480.77 647.908 1482.13 645.146 1484.84 643.227C1487.56 641.261 1491.51 640.278 1496.71 640.278C1501.67 640.278 1505.39 641.074 1507.87 642.665C1510.4 644.21 1512.01 646.784 1512.71 650.388L1504.57 651.442C1504.15 649.71 1503.31 648.423 1502.04 647.58C1500.78 646.691 1498.95 646.246 1496.57 646.246C1491.46 646.246 1488.91 647.838 1488.91 651.02C1488.91 652.05 1489.17 652.916 1489.69 653.618C1490.25 654.273 1491.04 654.835 1492.07 655.303C1493.15 655.771 1495.33 656.356 1498.6 657.058C1502.44 657.854 1505.18 658.603 1506.82 659.305C1508.5 660.007 1509.81 660.826 1510.75 661.762C1511.73 662.652 1512.48 663.728 1513 664.992C1513.51 666.256 1513.77 667.73 1513.77 669.415Z" fill="#DBDBDB"/>
</g>
<defs>
<filter id="filter0_ddii_2107_2" x="76.5753" y="117.506" width="553.033" height="170.271" filterUnits="userSpaceOnUse" color-interpolation-filters="sRGB">
<feFlood flood-opacity="0" result="BackgroundImageFix"/>
<feColorMatrix in="SourceAlpha" type="matrix" values="0 0 0 0 0 0 0 0 0 0 0 0 0 0 0 0 0 0 127 0" result="hardAlpha"/>
<feOffset dx="6.4142" dy="6.4142"/>
<feGaussianBlur stdDeviation="6.4142"/>
<feComposite in2="hardAlpha" operator="out"/>
<feColorMatrix type="matrix" values="0 0 0 0 1 0 0 0 0 1 0 0 0 0 1 0 0 0 1 0"/>
<feBlend mode="normal" in2="BackgroundImageFix" result="effect1_dropShadow_2107_2"/>
<feColorMatrix in="SourceAlpha" type="matrix" values="0 0 0 0 0 0 0 0 0 0 0 0 0 0 0 0 0 0 127 0" result="hardAlpha"/>
<feOffset dx="-6.4142" dy="-6.4142"/>
<feGaussianBlur stdDeviation="6.4142"/>
<feComposite in2="hardAlpha" operator="out"/>
<feColorMatrix type="matrix" values="0 0 0 0 0 0 0 0 0 0 0 0 0 0 0 0 0 0 0.15 0"/>
<feBlend mode="normal" in2="effect1_dropShadow_2107_2" result="effect2_dropShadow_2107_2"/>
<feBlend mode="normal" in="SourceGraphic" in2="effect2_dropShadow_2107_2" result="shape"/>
<feColorMatrix in="SourceAlpha" type="matrix" values="0 0 0 0 0 0 0 0 0 0 0 0 0 0 0 0 0 0 127 0" result="hardAlpha"/>
<feOffset dx="6.4142" dy="6.4142"/>
<feGaussianBlur stdDeviation="6.4142"/>
<feComposite in2="hardAlpha" operator="arithmetic" k2="-1" k3="1"/>
<feColorMatrix type="matrix" values="0 0 0 0 0 0 0 0 0 0 0 0 0 0 0 0 0 0 0.25 0"/>
<feBlend mode="normal" in2="shape" result="effect3_innerShadow_2107_2"/>
<feColorMatrix in="SourceAlpha" type="matrix" values="0 0 0 0 0 0 0 0 0 0 0 0 0 0 0 0 0 0 127 0" result="hardAlpha"/>
<feOffset dx="-6.4142" dy="-6.4142"/>
<feGaussianBlur stdDeviation="6.4142"/>
<feComposite in2="hardAlpha" operator="arithmetic" k2="-1" k3="1"/>
<feColorMatrix type="matrix" values="0 0 0 0 1 0 0 0 0 1 0 0 0 0 1 0 0 0 0.35 0"/>
<feBlend mode="normal" in2="effect3_innerShadow_2107_2" result="effect4_innerShadow_2107_2"/>
</filter>
<filter id="filter1_ddii_2107_2" x="92.7573" y="320.573" width="1490.57" height="109.421" filterUnits="userSpaceOnUse" color-interpolation-filters="sRGB">
<feFlood flood-opacity="0" result="BackgroundImageFix"/>
<feColorMatrix in="SourceAlpha" type="matrix" values="0 0 0 0 0 0 0 0 0 0 0 0 0 0 0 0 0 0 127 0" result="hardAlpha"/>
<feOffset dx="4.12195" dy="4.12195"/>
<feGaussianBlur stdDeviation="4.12195"/>
<feComposite in2="hardAlpha" operator="out"/>
<feColorMatrix type="matrix" values="0 0 0 0 1 0 0 0 0 1 0 0 0 0 1 0 0 0 1 0"/>
<feBlend mode="normal" in2="BackgroundImageFix" result="effect1_dropShadow_2107_2"/>
<feColorMatrix in="SourceAlpha" type="matrix" values="0 0 0 0 0 0 0 0 0 0 0 0 0 0 0 0 0 0 127 0" result="hardAlpha"/>
<feOffset dx="-4.12195" dy="-4.12195"/>
<feGaussianBlur stdDeviation="4.12195"/>
<feComposite in2="hardAlpha" operator="out"/>
<feColorMatrix type="matrix" values="0 0 0 0 0 0 0 0 0 0 0 0 0 0 0 0 0 0 0.15 0"/>
<feBlend mode="normal" in2="effect1_dropShadow_2107_2" result="effect2_dropShadow_2107_2"/>
<feBlend mode="normal" in="SourceGraphic" in2="effect2_dropShadow_2107_2" result="shape"/>
<feColorMatrix in="SourceAlpha" type="matrix" values="0 0 0 0 0 0 0 0 0 0 0 0 0 0 0 0 0 0 127 0" result="hardAlpha"/>
<feOffset dx="4.12195" dy="4.12195"/>
<feGaussianBlur stdDeviation="4.12195"/>
<feComposite in2="hardAlpha" operator="arithmetic" k2="-1" k3="1"/>
<feColorMatrix type="matrix" values="0 0 0 0 0 0 0 0 0 0 0 0 0 0 0 0 0 0 0.25 0"/>
<feBlend mode="normal" in2="shape" result="effect3_innerShadow_2107_2"/>
<feColorMatrix in="SourceAlpha" type="matrix" values="0 0 0 0 0 0 0 0 0 0 0 0 0 0 0 0 0 0 127 0" result="hardAlpha"/>
<feOffset dx="-4.12195" dy="-4.12195"/>
<feGaussianBlur stdDeviation="4.12195"/>
<feComposite in2="hardAlpha" operator="arithmetic" k2="-1" k3="1"/>
<feColorMatrix type="matrix" values="0 0 0 0 1 0 0 0 0 1 0 0 0 0 1 0 0 0 0.35 0"/>
<feBlend mode="normal" in2="effect3_innerShadow_2107_2" result="effect4_innerShadow_2107_2"/>
</filter>
<filter id="filter2_ddii_2107_2" x="1257.21" y="831.979" width="269.986" height="47.9528" filterUnits="userSpaceOnUse" color-interpolation-filters="sRGB">
<feFlood flood-opacity="0" result="BackgroundImageFix"/>
<feColorMatrix in="SourceAlpha" type="matrix" values="0 0 0 0 0 0 0 0 0 0 0 0 0 0 0 0 0 0 127 0" result="hardAlpha"/>
<feOffset dx="1.31049" dy="1.31049"/>
<feGaussianBlur stdDeviation="1.31049"/>
<feComposite in2="hardAlpha" operator="out"/>
<feColorMatrix type="matrix" values="0 0 0 0 0 0 0 0 0 0 0 0 0 0 0 0 0 0 0.1 0"/>
<feBlend mode="normal" in2="BackgroundImageFix" result="effect1_dropShadow_2107_2"/>
<feColorMatrix in="SourceAlpha" type="matrix" values="0 0 0 0 0 0 0 0 0 0 0 0 0 0 0 0 0 0 127 0" result="hardAlpha"/>
<feOffset dx="-1.31049" dy="-1.31049"/>
<feGaussianBlur stdDeviation="1.31049"/>
<feComposite in2="hardAlpha" operator="out"/>
<feColorMatrix type="matrix" values="0 0 0 0 1 0 0 0 0 1 0 0 0 0 1 0 0 0 0.8 0"/>
<feBlend mode="normal" in2="effect1_dropShadow_2107_2" result="effect2_dropShadow_2107_2"/>
<feBlend mode="normal" in="SourceGraphic" in2="effect2_dropShadow_2107_2" result="shape"/>
<feColorMatrix in="SourceAlpha" type="matrix" values="0 0 0 0 0 0 0 0 0 0 0 0 0 0 0 0 0 0 127 0" result="hardAlpha"/>
<feOffset dx="1.31049" dy="1.31049"/>
<feGaussianBlur stdDeviation="1.31049"/>
<feComposite in2="hardAlpha" operator="arithmetic" k2="-1" k3="1"/>
<feColorMatrix type="matrix" values="0 0 0 0 1 0 0 0 0 1 0 0 0 0 1 0 0 0 0.65 0"/>
<feBlend mode="normal" in2="shape" result="effect3_innerShadow_2107_2"/>
<feColorMatrix in="SourceAlpha" type="matrix" values="0 0 0 0 0 0 0 0 0 0 0 0 0 0 0 0 0 0 127 0" result="hardAlpha"/>
<feOffset dx="-1.31049" dy="-1.31049"/>
<feGaussianBlur stdDeviation="1.31049"/>
<feComposite in2="hardAlpha" operator="arithmetic" k2="-1" k3="1"/>
<feColorMatrix type="matrix" values="0 0 0 0 0 0 0 0 0 0 0 0 0 0 0 0 0 0 0.15 0"/>
<feBlend mode="normal" in2="effect3_innerShadow_2107_2" result="effect4_innerShadow_2107_2"/>
</filter>
<filter id="filter3_ddii_2107_2" x="1319.87" y="766.979" width="198.582" height="47.9528" filterUnits="userSpaceOnUse" color-interpolation-filters="sRGB">
<feFlood flood-opacity="0" result="BackgroundImageFix"/>
<feColorMatrix in="SourceAlpha" type="matrix" values="0 0 0 0 0 0 0 0 0 0 0 0 0 0 0 0 0 0 127 0" result="hardAlpha"/>
<feOffset dx="1.31049" dy="1.31049"/>
<feGaussianBlur stdDeviation="1.31049"/>
<feComposite in2="hardAlpha" operator="out"/>
<feColorMatrix type="matrix" values="0 0 0 0 0 0 0 0 0 0 0 0 0 0 0 0 0 0 0.1 0"/>
<feBlend mode="normal" in2="BackgroundImageFix" result="effect1_dropShadow_2107_2"/>
<feColorMatrix in="SourceAlpha" type="matrix" values="0 0 0 0 0 0 0 0 0 0 0 0 0 0 0 0 0 0 127 0" result="hardAlpha"/>
<feOffset dx="-1.31049" dy="-1.31049"/>
<feGaussianBlur stdDeviation="1.31049"/>
<feComposite in2="hardAlpha" operator="out"/>
<feColorMatrix type="matrix" values="0 0 0 0 1 0 0 0 0 1 0 0 0 0 1 0 0 0 0.8 0"/>
<feBlend mode="normal" in2="effect1_dropShadow_2107_2" result="effect2_dropShadow_2107_2"/>
<feBlend mode="normal" in="SourceGraphic" in2="effect2_dropShadow_2107_2" result="shape"/>
<feColorMatrix in="SourceAlpha" type="matrix" values="0 0 0 0 0 0 0 0 0 0 0 0 0 0 0 0 0 0 127 0" result="hardAlpha"/>
<feOffset dx="1.31049" dy="1.31049"/>
<feGaussianBlur stdDeviation="1.31049"/>
<feComposite in2="hardAlpha" operator="arithmetic" k2="-1" k3="1"/>
<feColorMatrix type="matrix" values="0 0 0 0 1 0 0 0 0 1 0 0 0 0 1 0 0 0 0.65 0"/>
<feBlend mode="normal" in2="shape" result="effect3_innerShadow_2107_2"/>
<feColorMatrix in="SourceAlpha" type="matrix" values="0 0 0 0 0 0 0 0 0 0 0 0 0 0 0 0 0 0 127 0" result="hardAlpha"/>
<feOffset dx="-1.31049" dy="-1.31049"/>
<feGaussianBlur stdDeviation="1.31049"/>
<feComposite in2="hardAlpha" operator="arithmetic" k2="-1" k3="1"/>
<feColorMatrix type="matrix" values="0 0 0 0 0 0 0 0 0 0 0 0 0 0 0 0 0 0 0.15 0"/>
<feBlend mode="normal" in2="effect3_innerShadow_2107_2" result="effect4_innerShadow_2107_2"/>
</filter>
<filter id="filter4_ddii_2107_2" x="1221.26" y="701.347" width="295.443" height="49.1464" filterUnits="userSpaceOnUse" color-interpolation-filters="sRGB">
<feFlood flood-opacity="0" result="BackgroundImageFix"/>
<feColorMatrix in="SourceAlpha" type="matrix" values="0 0 0 0 0 0 0 0 0 0 0 0 0 0 0 0 0 0 127 0" result="hardAlpha"/>
<feOffset dx="1.31049" dy="1.31049"/>
<feGaussianBlur stdDeviation="1.31049"/>
<feComposite in2="hardAlpha" operator="out"/>
<feColorMatrix type="matrix" values="0 0 0 0 0 0 0 0 0 0 0 0 0 0 0 0 0 0 0.1 0"/>
<feBlend mode="normal" in2="BackgroundImageFix" result="effect1_dropShadow_2107_2"/>
<feColorMatrix in="SourceAlpha" type="matrix" values="0 0 0 0 0 0 0 0 0 0 0 0 0 0 0 0 0 0 127 0" result="hardAlpha"/>
<feOffset dx="-1.31049" dy="-1.31049"/>
<feGaussianBlur stdDeviation="1.31049"/>
<feComposite in2="hardAlpha" operator="out"/>
<feColorMatrix type="matrix" values="0 0 0 0 1 0 0 0 0 1 0 0 0 0 1 0 0 0 0.8 0"/>
<feBlend mode="normal" in2="effect1_dropShadow_2107_2" result="effect2_dropShadow_2107_2"/>
<feBlend mode="normal" in="SourceGraphic" in2="effect2_dropShadow_2107_2" result="shape"/>
<feColorMatrix in="SourceAlpha" type="matrix" values="0 0 0 0 0 0 0 0 0 0 0 0 0 0 0 0 0 0 127 0" result="hardAlpha"/>
<feOffset dx="1.31049" dy="1.31049"/>
<feGaussianBlur stdDeviation="1.31049"/>
<feComposite in2="hardAlpha" operator="arithmetic" k2="-1" k3="1"/>
<feColorMatrix type="matrix" values="0 0 0 0 1 0 0 0 0 1 0 0 0 0 1 0 0 0 0.65 0"/>
<feBlend mode="normal" in2="shape" result="effect3_innerShadow_2107_2"/>
<feColorMatrix in="SourceAlpha" type="matrix" values="0 0 0 0 0 0 0 0 0 0 0 0 0 0 0 0 0 0 127 0" result="hardAlpha"/>
<feOffset dx="-1.31049" dy="-1.31049"/>
<feGaussianBlur stdDeviation="1.31049"/>
<feComposite in2="hardAlpha" operator="arithmetic" k2="-1" k3="1"/>
<feColorMatrix type="matrix" values="0 0 0 0 0 0 0 0 0 0 0 0 0 0 0 0 0 0 0.15 0"/>
<feBlend mode="normal" in2="effect3_innerShadow_2107_2" result="effect4_innerShadow_2107_2"/>
</filter>
<filter id="filter5_ddii_2107_2" x="884.113" y="636.347" width="633.587" height="49.1464" filterUnits="userSpaceOnUse" color-interpolation-filters="sRGB">
<feFlood flood-opacity="0" result="BackgroundImageFix"/>
<feColorMatrix in="SourceAlpha" type="matrix" values="0 0 0 0 0 0 0 0 0 0 0 0 0 0 0 0 0 0 127 0" result="hardAlpha"/>
<feOffset dx="1.31049" dy="1.31049"/>
<feGaussianBlur stdDeviation="1.31049"/>
<feComposite in2="hardAlpha" operator="out"/>
<feColorMatrix type="matrix" values="0 0 0 0 0 0 0 0 0 0 0 0 0 0 0 0 0 0 0.1 0"/>
<feBlend mode="normal" in2="BackgroundImageFix" result="effect1_dropShadow_2107_2"/>
<feColorMatrix in="SourceAlpha" type="matrix" values="0 0 0 0 0 0 0 0 0 0 0 0 0 0 0 0 0 0 127 0" result="hardAlpha"/>
<feOffset dx="-1.31049" dy="-1.31049"/>
<feGaussianBlur stdDeviation="1.31049"/>
<feComposite in2="hardAlpha" operator="out"/>
<feColorMatrix type="matrix" values="0 0 0 0 1 0 0 0 0 1 0 0 0 0 1 0 0 0 0.8 0"/>
<feBlend mode="normal" in2="effect1_dropShadow_2107_2" result="effect2_dropShadow_2107_2"/>
<feBlend mode="normal" in="SourceGraphic" in2="effect2_dropShadow_2107_2" result="shape"/>
<feColorMatrix in="SourceAlpha" type="matrix" values="0 0 0 0 0 0 0 0 0 0 0 0 0 0 0 0 0 0 127 0" result="hardAlpha"/>
<feOffset dx="1.31049" dy="1.31049"/>
<feGaussianBlur stdDeviation="1.31049"/>
<feComposite in2="hardAlpha" operator="arithmetic" k2="-1" k3="1"/>
<feColorMatrix type="matrix" values="0 0 0 0 1 0 0 0 0 1 0 0 0 0 1 0 0 0 0.65 0"/>
<feBlend mode="normal" in2="shape" result="effect3_innerShadow_2107_2"/>
<feColorMatrix in="SourceAlpha" type="matrix" values="0 0 0 0 0 0 0 0 0 0 0 0 0 0 0 0 0 0 127 0" result="hardAlpha"/>
<feOffset dx="-1.31049" dy="-1.31049"/>
<feGaussianBlur stdDeviation="1.31049"/>
<feComposite in2="hardAlpha" operator="arithmetic" k2="-1" k3="1"/>
<feColorMatrix type="matrix" values="0 0 0 0 0 0 0 0 0 0 0 0 0 0 0 0 0 0 0.15 0"/>
<feBlend mode="normal" in2="effect3_innerShadow_2107_2" result="effect4_innerShadow_2107_2"/>
</filter>
</defs>
</svg>
