<svg width="336" height="193" viewBox="0 0 336 193" fill="none" xmlns="http://www.w3.org/2000/svg">
<rect width="336" height="193" rx="10" fill="url(#paint0_linear_2111_57)"/>
<path d="M27.464 70.04C27.064 70.04 26.704 69.9493 26.384 69.768C26.0693 69.5867 25.8213 69.336 25.64 69.016C25.4587 68.6907 25.368 68.3173 25.368 67.896C25.368 67.4693 25.4587 67.096 25.64 66.776C25.8213 66.456 26.0693 66.208 26.384 66.032C26.704 65.8507 27.064 65.76 27.464 65.76C27.832 65.76 28.16 65.8427 28.448 66.008C28.7413 66.1733 28.9733 66.416 29.144 66.736C29.32 67.0507 29.408 67.4373 29.408 67.896C29.408 68.3493 29.3227 68.736 29.152 69.056C28.9813 69.376 28.7493 69.6213 28.456 69.792C28.168 69.9573 27.8373 70.04 27.464 70.04ZM27.504 69.536C27.8027 69.536 28.0693 69.4693 28.304 69.336C28.544 69.1973 28.7307 69.0053 28.864 68.76C29.0027 68.5093 29.072 68.2213 29.072 67.896C29.072 67.5653 29.0027 67.2773 28.864 67.032C28.7307 66.7867 28.544 66.5973 28.304 66.464C28.0693 66.3253 27.8027 66.256 27.504 66.256C27.2107 66.256 26.9467 66.3253 26.712 66.464C26.4773 66.5973 26.2907 66.7867 26.152 67.032C26.0133 67.2773 25.944 67.5653 25.944 67.896C25.944 68.2213 26.0133 68.5093 26.152 68.76C26.2907 69.0053 26.4773 69.1973 26.712 69.336C26.9467 69.4693 27.2107 69.536 27.504 69.536ZM29.088 70V68.736L29.144 67.888L29.064 67.04V64.064H29.632V70H29.088ZM32.9979 70.04C32.5605 70.04 32.1765 69.9493 31.8459 69.768C31.5152 69.5813 31.2565 69.328 31.0699 69.008C30.8832 68.6827 30.7899 68.312 30.7899 67.896C30.7899 67.48 30.8779 67.112 31.0539 66.792C31.2352 66.472 31.4805 66.2213 31.7899 66.04C32.1045 65.8533 32.4565 65.76 32.8459 65.76C33.2405 65.76 33.5899 65.8507 33.8939 66.032C34.2032 66.208 34.4459 66.4587 34.6219 66.784C34.7979 67.104 34.8859 67.4747 34.8859 67.896C34.8859 67.9227 34.8832 67.952 34.8779 67.984C34.8779 68.0107 34.8779 68.04 34.8779 68.072H31.2219V67.648H34.5739L34.3499 67.816C34.3499 67.512 34.2832 67.2427 34.1499 67.008C34.0219 66.768 33.8459 66.5813 33.6219 66.448C33.3979 66.3147 33.1392 66.248 32.8459 66.248C32.5579 66.248 32.2992 66.3147 32.0699 66.448C31.8405 66.5813 31.6619 66.768 31.5339 67.008C31.4059 67.248 31.3419 67.5227 31.3419 67.832V67.92C31.3419 68.24 31.4112 68.5227 31.5499 68.768C31.6939 69.008 31.8912 69.1973 32.1419 69.336C32.3979 69.4693 32.6885 69.536 33.0139 69.536C33.2699 69.536 33.5072 69.4907 33.7259 69.4C33.9499 69.3093 34.1419 69.1707 34.3019 68.984L34.6219 69.352C34.4352 69.576 34.2005 69.7467 33.9179 69.864C33.6405 69.9813 33.3339 70.04 32.9979 70.04ZM38.21 70.04C37.8473 70.04 37.5193 69.9573 37.226 69.792C36.9327 69.6213 36.698 69.3787 36.522 69.064C36.3513 68.744 36.266 68.3547 36.266 67.896C36.266 67.4373 36.3513 67.0507 36.522 66.736C36.6927 66.416 36.9247 66.1733 37.218 66.008C37.5113 65.8427 37.842 65.76 38.21 65.76C38.61 65.76 38.9673 65.8507 39.282 66.032C39.602 66.208 39.8527 66.4587 40.034 66.784C40.2153 67.104 40.306 67.4747 40.306 67.896C40.306 68.3227 40.2153 68.696 40.034 69.016C39.8527 69.336 39.602 69.5867 39.282 69.768C38.9673 69.9493 38.61 70.04 38.21 70.04ZM36.042 71.552V65.8H36.586V67.064L36.53 67.904L36.61 68.752V71.552H36.042ZM38.17 69.536C38.4687 69.536 38.7353 69.4693 38.97 69.336C39.2047 69.1973 39.3913 69.0053 39.53 68.76C39.6687 68.5093 39.738 68.2213 39.738 67.896C39.738 67.5707 39.6687 67.2853 39.53 67.04C39.3913 66.7947 39.2047 66.6027 38.97 66.464C38.7353 66.3253 38.4687 66.256 38.17 66.256C37.8713 66.256 37.602 66.3253 37.362 66.464C37.1273 66.6027 36.9407 66.7947 36.802 67.04C36.6687 67.2853 36.602 67.5707 36.602 67.896C36.602 68.2213 36.6687 68.5093 36.802 68.76C36.9407 69.0053 37.1273 69.1973 37.362 69.336C37.602 69.4693 37.8713 69.536 38.17 69.536ZM44.0724 70V69.072L44.0484 68.92V67.368C44.0484 67.0107 43.9471 66.736 43.7444 66.544C43.5471 66.352 43.2511 66.256 42.8564 66.256C42.5844 66.256 42.3258 66.3013 42.0804 66.392C41.8351 66.4827 41.6271 66.6027 41.4564 66.752L41.2004 66.328C41.4138 66.1467 41.6698 66.008 41.9684 65.912C42.2671 65.8107 42.5818 65.76 42.9124 65.76C43.4564 65.76 43.8751 65.896 44.1684 66.168C44.4671 66.4347 44.6164 66.8427 44.6164 67.392V70H44.0724ZM42.6244 70.04C42.3098 70.04 42.0351 69.9893 41.8004 69.888C41.5711 69.7813 41.3951 69.6373 41.2724 69.456C41.1498 69.2693 41.0884 69.056 41.0884 68.816C41.0884 68.5973 41.1391 68.4 41.2404 68.224C41.3471 68.0427 41.5178 67.8987 41.7524 67.792C41.9924 67.68 42.3124 67.624 42.7124 67.624H44.1604V68.048H42.7284C42.3231 68.048 42.0404 68.12 41.8804 68.264C41.7258 68.408 41.6484 68.5867 41.6484 68.8C41.6484 69.04 41.7418 69.232 41.9284 69.376C42.1151 69.52 42.3764 69.592 42.7124 69.592C43.0324 69.592 43.3071 69.52 43.5364 69.376C43.7711 69.2267 43.9418 69.0133 44.0484 68.736L44.1764 69.128C44.0698 69.4053 43.8831 69.6267 43.6164 69.792C43.3551 69.9573 43.0244 70.04 42.6244 70.04ZM46.1592 70V65.8H46.7032V66.944L46.6472 66.744C46.7645 66.424 46.9619 66.1813 47.2392 66.016C47.5165 65.8453 47.8605 65.76 48.2712 65.76V66.312C48.2499 66.312 48.2285 66.312 48.2072 66.312C48.1859 66.3067 48.1645 66.304 48.1432 66.304C47.7005 66.304 47.3539 66.44 47.1032 66.712C46.8525 66.9787 46.7272 67.36 46.7272 67.856V70H46.1592ZM50.8153 70.04C50.4206 70.04 50.1166 69.9333 49.9033 69.72C49.69 69.5067 49.5833 69.2053 49.5833 68.816V64.872H50.1513V68.784C50.1513 69.0293 50.2126 69.2187 50.3353 69.352C50.4633 69.4853 50.6446 69.552 50.8793 69.552C51.13 69.552 51.338 69.48 51.5033 69.336L51.7033 69.744C51.5913 69.8453 51.4553 69.92 51.2953 69.968C51.1406 70.016 50.9806 70.04 50.8153 70.04ZM48.8313 66.272V65.8H51.4313V66.272H48.8313ZM57.9853 65.76C58.3266 65.76 58.6226 65.8267 58.8733 65.96C59.1293 66.088 59.3266 66.2853 59.4653 66.552C59.6093 66.8187 59.6813 67.1547 59.6813 67.56V70H59.1133V67.616C59.1133 67.1733 59.0066 66.84 58.7933 66.616C58.5853 66.3867 58.2893 66.272 57.9053 66.272C57.6173 66.272 57.3666 66.3333 57.1533 66.456C56.9453 66.5733 56.7826 66.7467 56.6653 66.976C56.5533 67.2 56.4973 67.472 56.4973 67.792V70H55.9293V67.616C55.9293 67.1733 55.8226 66.84 55.6093 66.616C55.396 66.3867 55.0973 66.272 54.7133 66.272C54.4306 66.272 54.1826 66.3333 53.9693 66.456C53.756 66.5733 53.5906 66.7467 53.4733 66.976C53.3613 67.2 53.3053 67.472 53.3053 67.792V70H52.7373V65.8H53.2813V66.936L53.1933 66.736C53.3213 66.432 53.5266 66.1947 53.8093 66.024C54.0973 65.848 54.436 65.76 54.8253 65.76C55.236 65.76 55.5853 65.864 55.8733 66.072C56.1613 66.2747 56.348 66.5813 56.4333 66.992L56.2093 66.904C56.332 66.5627 56.548 66.288 56.8573 66.08C57.172 65.8667 57.548 65.76 57.9853 65.76ZM63.0057 70.04C62.5684 70.04 62.1844 69.9493 61.8537 69.768C61.523 69.5813 61.2644 69.328 61.0777 69.008C60.891 68.6827 60.7977 68.312 60.7977 67.896C60.7977 67.48 60.8857 67.112 61.0617 66.792C61.243 66.472 61.4884 66.2213 61.7977 66.04C62.1124 65.8533 62.4644 65.76 62.8537 65.76C63.2484 65.76 63.5977 65.8507 63.9017 66.032C64.211 66.208 64.4537 66.4587 64.6297 66.784C64.8057 67.104 64.8937 67.4747 64.8937 67.896C64.8937 67.9227 64.891 67.952 64.8857 67.984C64.8857 68.0107 64.8857 68.04 64.8857 68.072H61.2297V67.648H64.5817L64.3577 67.816C64.3577 67.512 64.291 67.2427 64.1577 67.008C64.0297 66.768 63.8537 66.5813 63.6297 66.448C63.4057 66.3147 63.147 66.248 62.8537 66.248C62.5657 66.248 62.307 66.3147 62.0777 66.448C61.8484 66.5813 61.6697 66.768 61.5417 67.008C61.4137 67.248 61.3497 67.5227 61.3497 67.832V67.92C61.3497 68.24 61.419 68.5227 61.5577 68.768C61.7017 69.008 61.899 69.1973 62.1497 69.336C62.4057 69.4693 62.6964 69.536 63.0217 69.536C63.2777 69.536 63.515 69.4907 63.7337 69.4C63.9577 69.3093 64.1497 69.1707 64.3097 68.984L64.6297 69.352C64.443 69.576 64.2084 69.7467 63.9257 69.864C63.6484 69.9813 63.3417 70.04 63.0057 70.04ZM68.1938 65.76C68.5351 65.76 68.8338 65.8267 69.0898 65.96C69.3511 66.088 69.5538 66.2853 69.6978 66.552C69.8471 66.8187 69.9218 67.1547 69.9218 67.56V70H69.3538V67.616C69.3538 67.1733 69.2418 66.84 69.0178 66.616C68.7991 66.3867 68.4898 66.272 68.0898 66.272C67.7911 66.272 67.5298 66.3333 67.3058 66.456C67.0871 66.5733 66.9165 66.7467 66.7938 66.976C66.6765 67.2 66.6178 67.472 66.6178 67.792V70H66.0498V65.8H66.5938V66.952L66.5058 66.736C66.6391 66.432 66.8525 66.1947 67.1458 66.024C67.4391 65.848 67.7885 65.76 68.1938 65.76ZM72.7841 70.04C72.3894 70.04 72.0854 69.9333 71.8721 69.72C71.6587 69.5067 71.5521 69.2053 71.5521 68.816V64.872H72.1201V68.784C72.1201 69.0293 72.1814 69.2187 72.3041 69.352C72.4321 69.4853 72.6134 69.552 72.8481 69.552C73.0987 69.552 73.3067 69.48 73.4721 69.336L73.6721 69.744C73.5601 69.8453 73.4241 69.92 73.2641 69.968C73.1094 70.016 72.9494 70.04 72.7841 70.04ZM70.8001 66.272V65.8H73.4001V66.272H70.8001ZM73.7141 70.8L76.3541 63.264H76.8741L74.2341 70.8H73.7141ZM81.6475 70.04C81.2848 70.04 80.9568 69.9573 80.6635 69.792C80.3702 69.6213 80.1355 69.3787 79.9595 69.064C79.7888 68.744 79.7035 68.3547 79.7035 67.896C79.7035 67.4373 79.7888 67.0507 79.9595 66.736C80.1302 66.416 80.3622 66.1733 80.6555 66.008C80.9488 65.8427 81.2795 65.76 81.6475 65.76C82.0475 65.76 82.4048 65.8507 82.7195 66.032C83.0395 66.208 83.2902 66.4587 83.4715 66.784C83.6528 67.104 83.7435 67.4747 83.7435 67.896C83.7435 68.3227 83.6528 68.696 83.4715 69.016C83.2902 69.336 83.0395 69.5867 82.7195 69.768C82.4048 69.9493 82.0475 70.04 81.6475 70.04ZM79.4795 71.552V65.8H80.0235V67.064L79.9675 67.904L80.0475 68.752V71.552H79.4795ZM81.6075 69.536C81.9062 69.536 82.1728 69.4693 82.4075 69.336C82.6422 69.1973 82.8288 69.0053 82.9675 68.76C83.1062 68.5093 83.1755 68.2213 83.1755 67.896C83.1755 67.5707 83.1062 67.2853 82.9675 67.04C82.8288 66.7947 82.6422 66.6027 82.4075 66.464C82.1728 66.3253 81.9062 66.256 81.6075 66.256C81.3088 66.256 81.0395 66.3253 80.7995 66.464C80.5648 66.6027 80.3782 66.7947 80.2395 67.04C80.1062 67.2853 80.0395 67.5707 80.0395 67.896C80.0395 68.2213 80.1062 68.5093 80.2395 68.76C80.3782 69.0053 80.5648 69.1973 80.7995 69.336C81.0395 69.4693 81.3088 69.536 81.6075 69.536ZM86.6134 70.04C86.208 70.04 85.8427 69.9493 85.5174 69.768C85.1974 69.5813 84.944 69.328 84.7574 69.008C84.5707 68.6827 84.4774 68.312 84.4774 67.896C84.4774 67.4747 84.5707 67.104 84.7574 66.784C84.944 66.464 85.1974 66.2133 85.5174 66.032C85.8374 65.8507 86.2027 65.76 86.6134 65.76C87.0294 65.76 87.3974 65.8507 87.7174 66.032C88.0427 66.2133 88.296 66.464 88.4774 66.784C88.664 67.104 88.7574 67.4747 88.7574 67.896C88.7574 68.312 88.664 68.6827 88.4774 69.008C88.296 69.328 88.0427 69.5813 87.7174 69.768C87.392 69.9493 87.024 70.04 86.6134 70.04ZM86.6134 69.536C86.9174 69.536 87.1867 69.4693 87.4214 69.336C87.656 69.1973 87.84 69.0053 87.9734 68.76C88.112 68.5093 88.1814 68.2213 88.1814 67.896C88.1814 67.5653 88.112 67.2773 87.9734 67.032C87.84 66.7867 87.656 66.5973 87.4214 66.464C87.1867 66.3253 86.92 66.256 86.6214 66.256C86.3227 66.256 86.056 66.3253 85.8214 66.464C85.5867 66.5973 85.4 66.7867 85.2614 67.032C85.1227 67.2773 85.0534 67.5653 85.0534 67.896C85.0534 68.2213 85.1227 68.5093 85.2614 68.76C85.4 69.0053 85.5867 69.1973 85.8214 69.336C86.056 69.4693 86.32 69.536 86.6134 69.536ZM91.045 70.04C90.6983 70.04 90.3703 69.992 90.061 69.896C89.7517 69.7947 89.509 69.6693 89.333 69.52L89.589 69.072C89.7597 69.2 89.9783 69.312 90.245 69.408C90.5117 69.4987 90.7917 69.544 91.085 69.544C91.485 69.544 91.773 69.4827 91.949 69.36C92.125 69.232 92.213 69.064 92.213 68.856C92.213 68.7013 92.1623 68.5813 92.061 68.496C91.965 68.4053 91.837 68.3387 91.677 68.296C91.517 68.248 91.3383 68.208 91.141 68.176C90.9437 68.144 90.7463 68.1067 90.549 68.064C90.357 68.0213 90.181 67.96 90.021 67.88C89.861 67.7947 89.7303 67.68 89.629 67.536C89.533 67.392 89.485 67.2 89.485 66.96C89.485 66.7307 89.549 66.5253 89.677 66.344C89.805 66.1627 89.9917 66.0213 90.237 65.92C90.4877 65.8133 90.7917 65.76 91.149 65.76C91.421 65.76 91.693 65.7973 91.965 65.872C92.237 65.9413 92.461 66.0347 92.637 66.152L92.389 66.608C92.2023 66.48 92.0023 66.3893 91.789 66.336C91.5757 66.2773 91.3623 66.248 91.149 66.248C90.7703 66.248 90.4903 66.3147 90.309 66.448C90.133 66.576 90.045 66.7413 90.045 66.944C90.045 67.104 90.093 67.2293 90.189 67.32C90.2903 67.4107 90.421 67.4827 90.581 67.536C90.7463 67.584 90.925 67.624 91.117 67.656C91.3143 67.688 91.509 67.728 91.701 67.776C91.8983 67.8187 92.077 67.88 92.237 67.96C92.4023 68.0347 92.533 68.144 92.629 68.288C92.7303 68.4267 92.781 68.6107 92.781 68.84C92.781 69.0853 92.7117 69.2987 92.573 69.48C92.4397 69.656 92.2423 69.7947 91.981 69.896C91.725 69.992 91.413 70.04 91.045 70.04ZM93.8233 70V65.8H94.3913V70H93.8233ZM94.1113 64.872C93.9939 64.872 93.8953 64.832 93.8153 64.752C93.7353 64.672 93.6953 64.576 93.6953 64.464C93.6953 64.352 93.7353 64.2587 93.8153 64.184C93.8953 64.104 93.9939 64.064 94.1113 64.064C94.2286 64.064 94.3273 64.1013 94.4073 64.176C94.4873 64.2507 94.5273 64.344 94.5273 64.456C94.5273 64.5733 94.4873 64.672 94.4073 64.752C94.3326 64.832 94.2339 64.872 94.1113 64.872ZM97.2997 70.04C96.905 70.04 96.601 69.9333 96.3877 69.72C96.1744 69.5067 96.0677 69.2053 96.0677 68.816V64.872H96.6357V68.784C96.6357 69.0293 96.697 69.2187 96.8197 69.352C96.9477 69.4853 97.129 69.552 97.3637 69.552C97.6144 69.552 97.8224 69.48 97.9877 69.336L98.1877 69.744C98.0757 69.8453 97.9397 69.92 97.7797 69.968C97.625 70.016 97.465 70.04 97.2997 70.04ZM95.3157 66.272V65.8H97.9157V66.272H95.3157ZM99.2217 70V65.8H99.7897V70H99.2217ZM99.5097 64.872C99.3924 64.872 99.2937 64.832 99.2137 64.752C99.1337 64.672 99.0937 64.576 99.0937 64.464C99.0937 64.352 99.1337 64.2587 99.2137 64.184C99.2937 64.104 99.3924 64.064 99.5097 64.064C99.627 64.064 99.7257 64.1013 99.8057 64.176C99.8857 64.2507 99.9257 64.344 99.9257 64.456C99.9257 64.5733 99.8857 64.672 99.8057 64.752C99.731 64.832 99.6324 64.872 99.5097 64.872ZM103.082 70.04C102.677 70.04 102.311 69.9493 101.986 69.768C101.666 69.5813 101.413 69.328 101.226 69.008C101.039 68.6827 100.946 68.312 100.946 67.896C100.946 67.4747 101.039 67.104 101.226 66.784C101.413 66.464 101.666 66.2133 101.986 66.032C102.306 65.8507 102.671 65.76 103.082 65.76C103.498 65.76 103.866 65.8507 104.186 66.032C104.511 66.2133 104.765 66.464 104.946 66.784C105.133 67.104 105.226 67.4747 105.226 67.896C105.226 68.312 105.133 68.6827 104.946 69.008C104.765 69.328 104.511 69.5813 104.186 69.768C103.861 69.9493 103.493 70.04 103.082 70.04ZM103.082 69.536C103.386 69.536 103.655 69.4693 103.89 69.336C104.125 69.1973 104.309 69.0053 104.442 68.76C104.581 68.5093 104.65 68.2213 104.65 67.896C104.65 67.5653 104.581 67.2773 104.442 67.032C104.309 66.7867 104.125 66.5973 103.89 66.464C103.655 66.3253 103.389 66.256 103.09 66.256C102.791 66.256 102.525 66.3253 102.29 66.464C102.055 66.5973 101.869 66.7867 101.73 67.032C101.591 67.2773 101.522 67.5653 101.522 67.896C101.522 68.2213 101.591 68.5093 101.73 68.76C101.869 69.0053 102.055 69.1973 102.29 69.336C102.525 69.4693 102.789 69.536 103.082 69.536ZM108.53 65.76C108.871 65.76 109.17 65.8267 109.426 65.96C109.687 66.088 109.89 66.2853 110.034 66.552C110.183 66.8187 110.258 67.1547 110.258 67.56V70H109.69V67.616C109.69 67.1733 109.578 66.84 109.354 66.616C109.135 66.3867 108.826 66.272 108.426 66.272C108.127 66.272 107.866 66.3333 107.642 66.456C107.423 66.5733 107.252 66.7467 107.13 66.976C107.012 67.2 106.954 67.472 106.954 67.792V70H106.386V65.8H106.93V66.952L106.842 66.736C106.975 66.432 107.188 66.1947 107.482 66.024C107.775 65.848 108.124 65.76 108.53 65.76Z" fill="black"/>
<path d="M35.262 54.152L34.674 54.39V46.942H36.536V56H34.674L27.352 48.846L27.94 48.608V56H26.078V46.942H27.94L35.262 54.152ZM41.8471 56.154C41.1565 56.154 40.5265 56.0047 39.9571 55.706C39.3971 55.398 38.9491 54.9733 38.6131 54.432C38.2865 53.8813 38.1231 53.2467 38.1231 52.528C38.1231 51.7907 38.2911 51.1513 38.6271 50.61C38.9631 50.0687 39.4158 49.6487 39.9851 49.35C40.5638 49.042 41.2171 48.888 41.9451 48.888C42.7478 48.888 43.3918 49.0513 43.8771 49.378C44.3718 49.6953 44.7311 50.1293 44.9551 50.68C45.1791 51.2307 45.2911 51.8467 45.2911 52.528C45.2911 52.9387 45.2258 53.3587 45.0951 53.788C44.9645 54.208 44.7638 54.6 44.4931 54.964C44.2225 55.3187 43.8678 55.608 43.4291 55.832C42.9905 56.0467 42.4631 56.154 41.8471 56.154ZM42.4351 54.754C42.9858 54.754 43.4618 54.6607 43.8631 54.474C44.2645 54.2873 44.5725 54.026 44.7871 53.69C45.0018 53.354 45.1091 52.9667 45.1091 52.528C45.1091 52.052 44.9971 51.6507 44.7731 51.324C44.5585 50.988 44.2505 50.736 43.8491 50.568C43.4571 50.3907 42.9858 50.302 42.4351 50.302C41.6605 50.302 41.0585 50.5073 40.6291 50.918C40.1998 51.3193 39.9851 51.856 39.9851 52.528C39.9851 52.976 40.0878 53.368 40.2931 53.704C40.4985 54.0307 40.7831 54.2873 41.1471 54.474C41.5205 54.6607 41.9498 54.754 42.4351 54.754ZM45.1091 49.042H46.9291V56H45.2351C45.2351 56 45.2211 55.9113 45.1931 55.734C45.1745 55.5473 45.1558 55.314 45.1371 55.034C45.1185 54.754 45.1091 54.4787 45.1091 54.208V49.042ZM48.5763 49.042H50.3963V56H48.5763V49.042ZM53.6303 48.888C54.0597 48.888 54.4563 48.944 54.8203 49.056C55.1843 49.168 55.5017 49.3407 55.7723 49.574C56.043 49.8073 56.253 50.106 56.4023 50.47C56.5517 50.8247 56.6263 51.2493 56.6263 51.744V56H54.8063V52.066C54.8063 51.478 54.6617 51.0487 54.3723 50.778C54.0923 50.498 53.6303 50.358 52.9863 50.358C52.501 50.358 52.0623 50.4513 51.6703 50.638C51.2783 50.8247 50.961 51.0627 50.7183 51.352C50.4757 51.632 50.3357 51.926 50.2983 52.234L50.2843 51.52C50.331 51.1933 50.4383 50.876 50.6063 50.568C50.7743 50.26 50.9983 49.98 51.2783 49.728C51.5677 49.4667 51.9083 49.2613 52.3003 49.112C52.6923 48.9627 53.1357 48.888 53.6303 48.888ZM59.6923 48.888C60.1217 48.888 60.5183 48.944 60.8823 49.056C61.2463 49.168 61.5637 49.3407 61.8343 49.574C62.105 49.8073 62.315 50.106 62.4643 50.47C62.623 50.8247 62.7023 51.2493 62.7023 51.744V56H60.8823V52.066C60.8823 51.478 60.7377 51.0487 60.4483 50.778C60.159 50.498 59.6923 50.358 59.0483 50.358C58.563 50.358 58.1243 50.4513 57.7323 50.638C57.3403 50.8247 57.023 51.0627 56.7803 51.352C56.5377 51.632 56.4023 51.926 56.3743 52.234L56.3463 51.478C56.393 51.17 56.505 50.862 56.6823 50.554C56.8597 50.246 57.093 49.966 57.3823 49.714C57.6717 49.462 58.0077 49.2613 58.3903 49.112C58.7823 48.9627 59.2163 48.888 59.6923 48.888ZM70.6957 53.69H72.4597C72.385 54.166 72.1843 54.5907 71.8577 54.964C71.5403 55.3373 71.1063 55.6313 70.5557 55.846C70.005 56.0607 69.333 56.168 68.5397 56.168C67.653 56.168 66.869 56.028 66.1877 55.748C65.5063 55.4587 64.9743 55.0433 64.5917 54.502C64.209 53.9607 64.0177 53.3073 64.0177 52.542C64.0177 51.7767 64.2043 51.1233 64.5777 50.582C64.951 50.0313 65.469 49.6113 66.1317 49.322C66.8037 49.0327 67.5877 48.888 68.4837 48.888C69.3983 48.888 70.159 49.0327 70.7657 49.322C71.3723 49.6113 71.8203 50.05 72.1097 50.638C72.4083 51.2167 72.5343 51.9587 72.4877 52.864H65.8517C65.8983 53.2187 66.029 53.5407 66.2437 53.83C66.4677 54.1193 66.7663 54.348 67.1397 54.516C67.5223 54.684 67.975 54.768 68.4977 54.768C69.0763 54.768 69.557 54.67 69.9397 54.474C70.3317 54.2687 70.5837 54.0073 70.6957 53.69ZM68.3997 50.274C67.7277 50.274 67.1817 50.4233 66.7617 50.722C66.3417 51.0113 66.071 51.3707 65.9497 51.8H70.6817C70.635 51.3333 70.411 50.9647 70.0097 50.694C69.6177 50.414 69.081 50.274 68.3997 50.274Z" fill="black"/>
<ellipse cx="252" cy="96.5" rx="84" ry="96.5" fill="url(#paint1_radial_2111_57)"/>
<path d="M203.79 91.27C203.73 91.79 203.547 92.2333 203.24 92.6C202.933 92.9667 202.517 93.2467 201.99 93.44C201.463 93.6333 200.837 93.73 200.11 93.73C199.503 93.73 198.947 93.66 198.44 93.52C197.94 93.38 197.507 93.17 197.14 92.89C196.78 92.61 196.5 92.2633 196.3 91.85C196.1 91.43 196 90.94 196 90.38C196 89.82 196.1 89.33 196.3 88.91C196.5 88.49 196.78 88.14 197.14 87.86C197.507 87.5733 197.94 87.36 198.44 87.22C198.947 87.0733 199.503 87 200.11 87C200.837 87 201.463 87.1 201.99 87.3C202.523 87.5 202.943 87.7867 203.25 88.16C203.557 88.5267 203.737 88.9733 203.79 89.5H202.47C202.383 89.22 202.237 88.98 202.03 88.78C201.83 88.5733 201.57 88.4167 201.25 88.31C200.93 88.2033 200.55 88.15 200.11 88.15C199.563 88.15 199.083 88.2367 198.67 88.41C198.257 88.5767 197.937 88.8267 197.71 89.16C197.483 89.4867 197.37 89.8933 197.37 90.38C197.37 90.86 197.483 91.2633 197.71 91.59C197.937 91.9167 198.257 92.1667 198.67 92.34C199.083 92.5067 199.563 92.59 200.11 92.59C200.55 92.59 200.927 92.5367 201.24 92.43C201.56 92.3233 201.82 92.17 202.02 91.97C202.227 91.77 202.377 91.5367 202.47 91.27H203.79Z" fill="black"/>
<path d="M207.848 93.72C207.221 93.72 206.668 93.62 206.188 93.42C205.714 93.22 205.344 92.93 205.078 92.55C204.811 92.1633 204.678 91.69 204.678 91.13C204.678 90.57 204.811 90.0967 205.078 89.71C205.344 89.3167 205.714 89.02 206.188 88.82C206.668 88.62 207.221 88.52 207.848 88.52C208.474 88.52 209.021 88.62 209.488 88.82C209.961 89.02 210.331 89.3167 210.598 89.71C210.864 90.0967 210.998 90.57 210.998 91.13C210.998 91.69 210.864 92.1633 210.598 92.55C210.331 92.93 209.961 93.22 209.488 93.42C209.021 93.62 208.474 93.72 207.848 93.72ZM207.848 92.72C208.194 92.72 208.504 92.66 208.778 92.54C209.058 92.4133 209.278 92.2333 209.438 92C209.598 91.76 209.678 91.47 209.678 91.13C209.678 90.79 209.598 90.5 209.438 90.26C209.278 90.0133 209.061 89.8267 208.788 89.7C208.514 89.5733 208.201 89.51 207.848 89.51C207.501 89.51 207.188 89.5733 206.908 89.7C206.628 89.8267 206.404 90.01 206.238 90.25C206.078 90.49 205.998 90.7833 205.998 91.13C205.998 91.47 206.078 91.76 206.238 92C206.398 92.2333 206.618 92.4133 206.898 92.54C207.178 92.66 207.494 92.72 207.848 92.72Z" fill="black"/>
<path d="M211.959 88.63H213.259V93.6H211.959V88.63ZM215.569 88.52C215.875 88.52 216.159 88.56 216.419 88.64C216.679 88.72 216.905 88.8433 217.099 89.01C217.292 89.1767 217.442 89.39 217.549 89.65C217.655 89.9033 217.709 90.2067 217.709 90.56V93.6H216.409V90.79C216.409 90.37 216.305 90.0633 216.099 89.87C215.899 89.67 215.569 89.57 215.109 89.57C214.762 89.57 214.449 89.6367 214.169 89.77C213.889 89.9033 213.662 90.0733 213.489 90.28C213.315 90.48 213.215 90.69 213.189 90.91L213.179 90.4C213.212 90.1667 213.289 89.94 213.409 89.72C213.529 89.5 213.689 89.3 213.889 89.12C214.095 88.9333 214.339 88.7867 214.619 88.68C214.899 88.5733 215.215 88.52 215.569 88.52ZM219.899 88.52C220.205 88.52 220.489 88.56 220.749 88.64C221.009 88.72 221.235 88.8433 221.429 89.01C221.622 89.1767 221.772 89.39 221.879 89.65C221.992 89.9033 222.049 90.2067 222.049 90.56V93.6H220.749V90.79C220.749 90.37 220.645 90.0633 220.439 89.87C220.232 89.67 219.899 89.57 219.439 89.57C219.092 89.57 218.779 89.6367 218.499 89.77C218.219 89.9033 217.992 90.0733 217.819 90.28C217.645 90.48 217.549 90.69 217.529 90.91L217.509 90.37C217.542 90.15 217.622 89.93 217.749 89.71C217.875 89.49 218.042 89.29 218.249 89.11C218.455 88.93 218.695 88.7867 218.969 88.68C219.249 88.5733 219.559 88.52 219.899 88.52Z" fill="black"/>
<path d="M226.848 93.72C226.408 93.72 226.032 93.6433 225.718 93.49C225.412 93.33 225.162 93.1233 224.968 92.87C224.775 92.61 224.632 92.3267 224.538 92.02C224.445 91.7133 224.398 91.4133 224.398 91.12C224.398 90.7533 224.442 90.4133 224.528 90.1C224.622 89.7867 224.765 89.5133 224.958 89.28C225.152 89.04 225.402 88.8533 225.708 88.72C226.022 88.5867 226.402 88.52 226.848 88.52C227.348 88.52 227.798 88.63 228.198 88.85C228.598 89.07 228.915 89.3767 229.148 89.77C229.388 90.1567 229.508 90.6067 229.508 91.12C229.508 91.6467 229.388 92.1067 229.148 92.5C228.908 92.8867 228.588 93.1867 228.188 93.4C227.788 93.6133 227.342 93.72 226.848 93.72ZM226.428 92.71C226.782 92.71 227.088 92.6433 227.348 92.51C227.615 92.3767 227.818 92.1933 227.958 91.96C228.105 91.72 228.178 91.44 228.178 91.12C228.178 90.64 228.025 90.2533 227.718 89.96C227.418 89.6667 226.988 89.52 226.428 89.52C226.075 89.52 225.752 89.5833 225.458 89.71C225.172 89.8367 224.945 90.02 224.778 90.26C224.612 90.4933 224.528 90.78 224.528 91.12C224.528 91.44 224.605 91.72 224.758 91.96C224.912 92.1933 225.132 92.3767 225.418 92.51C225.705 92.6433 226.042 92.71 226.428 92.71ZM223.228 88.63H224.468L224.528 89.95V95.6H223.228V88.63Z" fill="black"/>
<path d="M232.885 93.71C232.391 93.71 231.941 93.6033 231.535 93.39C231.135 93.17 230.815 92.8667 230.575 92.48C230.341 92.0867 230.225 91.6333 230.225 91.12C230.225 90.5933 230.345 90.1367 230.585 89.75C230.825 89.3633 231.148 89.0633 231.555 88.85C231.968 88.63 232.435 88.52 232.955 88.52C233.528 88.52 233.988 88.6367 234.335 88.87C234.688 89.0967 234.945 89.4067 235.105 89.8C235.265 90.1933 235.345 90.6333 235.345 91.12C235.345 91.4133 235.298 91.7133 235.205 92.02C235.111 92.32 234.968 92.6 234.775 92.86C234.581 93.1133 234.328 93.32 234.015 93.48C233.701 93.6333 233.325 93.71 232.885 93.71ZM233.305 92.71C233.698 92.71 234.038 92.6433 234.325 92.51C234.611 92.3767 234.831 92.19 234.985 91.95C235.138 91.71 235.215 91.4333 235.215 91.12C235.215 90.78 235.135 90.4933 234.975 90.26C234.821 90.02 234.601 89.84 234.315 89.72C234.035 89.5933 233.698 89.53 233.305 89.53C232.751 89.53 232.321 89.6767 232.015 89.97C231.708 90.2567 231.555 90.64 231.555 91.12C231.555 91.44 231.628 91.72 231.775 91.96C231.921 92.1933 232.125 92.3767 232.385 92.51C232.651 92.6433 232.958 92.71 233.305 92.71ZM235.215 88.63H236.515V93.6H235.305C235.305 93.6 235.295 93.5367 235.275 93.41C235.261 93.2767 235.248 93.11 235.235 92.91C235.221 92.71 235.215 92.5133 235.215 92.32V88.63Z" fill="black"/>
<path d="M237.691 88.63H238.991V93.6H237.691V88.63ZM241.301 88.52C241.608 88.52 241.891 88.56 242.151 88.64C242.411 88.72 242.638 88.8433 242.831 89.01C243.024 89.1767 243.174 89.39 243.281 89.65C243.388 89.9033 243.441 90.2067 243.441 90.56V93.6H242.141V90.79C242.141 90.37 242.038 90.0633 241.831 89.87C241.631 89.67 241.301 89.57 240.841 89.57C240.494 89.57 240.181 89.6367 239.901 89.77C239.621 89.9033 239.394 90.0733 239.221 90.28C239.048 90.48 238.948 90.69 238.921 90.91L238.911 90.4C238.944 90.1667 239.021 89.94 239.141 89.72C239.261 89.5 239.421 89.3 239.621 89.12C239.828 88.9333 240.071 88.7867 240.351 88.68C240.631 88.5733 240.948 88.52 241.301 88.52Z" fill="black"/>
<path d="M244.077 88.63H245.457L247.607 93.4L246.487 93.6L244.077 88.63ZM250.157 88.63L246.717 95.6H245.367L246.837 92.86L248.767 88.63H250.157Z" fill="black"/>
<path d="M260.056 92.28L259.636 92.45V87.13H260.966V93.6H259.636L254.406 88.49L254.826 88.32V93.6H253.496V87.13H254.826L260.056 92.28Z" fill="black"/>
<path d="M264.76 93.71C264.266 93.71 263.816 93.6033 263.41 93.39C263.01 93.17 262.69 92.8667 262.45 92.48C262.216 92.0867 262.1 91.6333 262.1 91.12C262.1 90.5933 262.22 90.1367 262.46 89.75C262.7 89.3633 263.023 89.0633 263.43 88.85C263.843 88.63 264.31 88.52 264.83 88.52C265.403 88.52 265.863 88.6367 266.21 88.87C266.563 89.0967 266.82 89.4067 266.98 89.8C267.14 90.1933 267.22 90.6333 267.22 91.12C267.22 91.4133 267.173 91.7133 267.08 92.02C266.986 92.32 266.843 92.6 266.65 92.86C266.456 93.1133 266.203 93.32 265.89 93.48C265.576 93.6333 265.2 93.71 264.76 93.71ZM265.18 92.71C265.573 92.71 265.913 92.6433 266.2 92.51C266.486 92.3767 266.706 92.19 266.86 91.95C267.013 91.71 267.09 91.4333 267.09 91.12C267.09 90.78 267.01 90.4933 266.85 90.26C266.696 90.02 266.476 89.84 266.19 89.72C265.91 89.5933 265.573 89.53 265.18 89.53C264.626 89.53 264.196 89.6767 263.89 89.97C263.583 90.2567 263.43 90.64 263.43 91.12C263.43 91.44 263.503 91.72 263.65 91.96C263.796 92.1933 264 92.3767 264.26 92.51C264.526 92.6433 264.833 92.71 265.18 92.71ZM267.09 88.63H268.39V93.6H267.18C267.18 93.6 267.17 93.5367 267.15 93.41C267.136 93.2767 267.123 93.11 267.11 92.91C267.096 92.71 267.09 92.5133 267.09 92.32V88.63Z" fill="black"/>
<path d="M269.566 88.63H270.866V93.6H269.566V88.63ZM273.176 88.52C273.483 88.52 273.766 88.56 274.026 88.64C274.286 88.72 274.513 88.8433 274.706 89.01C274.899 89.1767 275.049 89.39 275.156 89.65C275.263 89.9033 275.316 90.2067 275.316 90.56V93.6H274.016V90.79C274.016 90.37 273.913 90.0633 273.706 89.87C273.506 89.67 273.176 89.57 272.716 89.57C272.369 89.57 272.056 89.6367 271.776 89.77C271.496 89.9033 271.269 90.0733 271.096 90.28C270.923 90.48 270.823 90.69 270.796 90.91L270.786 90.4C270.819 90.1667 270.896 89.94 271.016 89.72C271.136 89.5 271.296 89.3 271.496 89.12C271.703 88.9333 271.946 88.7867 272.226 88.68C272.506 88.5733 272.823 88.52 273.176 88.52ZM277.506 88.52C277.813 88.52 278.096 88.56 278.356 88.64C278.616 88.72 278.843 88.8433 279.036 89.01C279.229 89.1767 279.379 89.39 279.486 89.65C279.599 89.9033 279.656 90.2067 279.656 90.56V93.6H278.356V90.79C278.356 90.37 278.253 90.0633 278.046 89.87C277.839 89.67 277.506 89.57 277.046 89.57C276.699 89.57 276.386 89.6367 276.106 89.77C275.826 89.9033 275.599 90.0733 275.426 90.28C275.253 90.48 275.156 90.69 275.136 90.91L275.116 90.37C275.149 90.15 275.229 89.93 275.356 89.71C275.483 89.49 275.649 89.29 275.856 89.11C276.063 88.93 276.303 88.7867 276.576 88.68C276.856 88.5733 277.166 88.52 277.506 88.52Z" fill="black"/>
<path d="M285.366 91.95H286.626C286.572 92.29 286.429 92.5933 286.196 92.86C285.969 93.1267 285.659 93.3367 285.266 93.49C284.872 93.6433 284.392 93.72 283.826 93.72C283.192 93.72 282.632 93.62 282.146 93.42C281.659 93.2133 281.279 92.9167 281.006 92.53C280.732 92.1433 280.596 91.6767 280.596 91.13C280.596 90.5833 280.729 90.1167 280.996 89.73C281.262 89.3367 281.632 89.0367 282.106 88.83C282.586 88.6233 283.146 88.52 283.786 88.52C284.439 88.52 284.982 88.6233 285.416 88.83C285.849 89.0367 286.169 89.35 286.376 89.77C286.589 90.1833 286.679 90.7133 286.646 91.36H281.906C281.939 91.6133 282.032 91.8433 282.186 92.05C282.346 92.2567 282.559 92.42 282.826 92.54C283.099 92.66 283.422 92.72 283.796 92.72C284.209 92.72 284.552 92.65 284.826 92.51C285.106 92.3633 285.286 92.1767 285.366 91.95ZM283.726 89.51C283.246 89.51 282.856 89.6167 282.556 89.83C282.256 90.0367 282.062 90.2933 281.976 90.6H285.356C285.322 90.2667 285.162 90.0033 284.876 89.81C284.596 89.61 284.212 89.51 283.726 89.51Z" fill="black"/>
<path d="M42.3722 153.247C41.982 153.247 41.642 153.15 41.3523 152.955C41.0644 152.759 40.8409 152.492 40.6818 152.153C40.5227 151.814 40.4432 151.428 40.4432 150.994C40.4432 150.557 40.5237 150.168 40.6847 149.827C40.8475 149.486 41.0729 149.219 41.3608 149.026C41.6487 148.83 41.983 148.733 42.3636 148.733C42.6553 148.733 42.9195 148.79 43.1562 148.903C43.393 149.015 43.5881 149.173 43.7415 149.378C43.8968 149.58 43.9943 149.817 44.0341 150.088H43.5227C43.4697 149.842 43.3419 149.632 43.1392 149.457C42.9384 149.281 42.6828 149.193 42.3722 149.193C42.0938 149.193 41.8475 149.269 41.6335 149.42C41.4195 149.57 41.2519 149.779 41.1307 150.048C41.0114 150.315 40.9517 150.625 40.9517 150.977C40.9517 151.331 41.0104 151.645 41.1278 151.918C41.2453 152.188 41.41 152.401 41.6222 152.554C41.8362 152.707 42.0862 152.784 42.3722 152.784C42.5653 152.784 42.7415 152.748 42.9006 152.676C43.0616 152.602 43.196 152.498 43.304 152.364C43.4138 152.229 43.4877 152.069 43.5256 151.884H44.0369C43.9991 152.147 43.9053 152.382 43.7557 152.588C43.608 152.793 43.4157 152.954 43.179 153.071C42.9441 153.188 42.6752 153.247 42.3722 153.247ZM46.8168 153.247C46.4399 153.247 46.1065 153.152 45.8168 152.96C45.5289 152.769 45.3035 152.505 45.1406 152.168C44.9777 151.829 44.8963 151.437 44.8963 150.994C44.8963 150.547 44.9777 150.154 45.1406 149.815C45.3035 149.474 45.5289 149.209 45.8168 149.02C46.1065 148.829 46.4399 148.733 46.8168 148.733C47.1937 148.733 47.526 148.829 47.8139 149.02C48.1018 149.211 48.3272 149.476 48.4901 149.815C48.6548 150.154 48.7372 150.547 48.7372 150.994C48.7372 151.437 48.6558 151.829 48.4929 152.168C48.33 152.505 48.1037 152.769 47.8139 152.96C47.526 153.152 47.1937 153.247 46.8168 153.247ZM46.8168 152.784C47.1198 152.784 47.3764 152.703 47.5866 152.54C47.7969 152.377 47.956 152.16 48.0639 151.889C48.1738 151.618 48.2287 151.32 48.2287 150.994C48.2287 150.669 48.1738 150.369 48.0639 150.097C47.956 149.824 47.7969 149.605 47.5866 149.44C47.3764 149.276 47.1198 149.193 46.8168 149.193C46.5156 149.193 46.259 149.276 46.0469 149.44C45.8366 149.605 45.6766 149.824 45.5668 150.097C45.4588 150.369 45.4048 150.669 45.4048 150.994C45.4048 151.32 45.4588 151.618 45.5668 151.889C45.6766 152.16 45.8366 152.377 46.0469 152.54C46.2571 152.703 46.5137 152.784 46.8168 152.784ZM49.8473 153.156V148.793H50.3388V149.463H50.3842C50.4714 149.238 50.6162 149.061 50.8189 148.932C51.0234 148.801 51.2687 148.736 51.5547 148.736C51.8558 148.736 52.103 148.807 52.2962 148.949C52.4912 149.089 52.6371 149.282 52.7337 149.528H52.7706C52.8691 149.286 53.0291 149.094 53.2507 148.952C53.4742 148.808 53.745 148.736 54.0632 148.736C54.4685 148.736 54.7886 148.864 55.0234 149.119C55.2583 149.373 55.3757 149.744 55.3757 150.233V153.156H54.87V150.233C54.87 149.888 54.782 149.63 54.6058 149.457C54.4297 149.285 54.1977 149.199 53.9098 149.199C53.5765 149.199 53.3198 149.301 53.1399 149.506C52.96 149.71 52.87 149.97 52.87 150.284V153.156H52.353V150.188C52.353 149.892 52.2706 149.653 52.1058 149.472C51.9411 149.29 51.709 149.199 51.4098 149.199C51.209 149.199 51.0282 149.248 50.8672 149.347C50.7081 149.445 50.5821 149.582 50.4893 149.759C50.3984 149.933 50.353 150.134 50.353 150.361V153.156H49.8473ZM56.7145 154.793V148.793H57.206V149.625H57.2656C57.3262 149.494 57.4096 149.361 57.5156 149.224C57.6217 149.086 57.7618 148.97 57.9361 148.875C58.1122 148.78 58.3338 148.733 58.6009 148.733C58.9607 148.733 59.2751 148.828 59.544 149.017C59.8149 149.205 60.0251 149.468 60.1747 149.807C60.3262 150.144 60.402 150.537 60.402 150.986C60.402 151.437 60.3262 151.831 60.1747 152.17C60.0251 152.509 59.8149 152.774 59.544 152.963C59.2751 153.152 58.9626 153.247 58.6065 153.247C58.3433 153.247 58.1226 153.2 57.9446 153.105C57.7685 153.01 57.6255 152.894 57.5156 152.756C57.4077 152.616 57.3243 152.479 57.2656 152.347H57.2202V154.793H56.7145ZM57.2145 150.977C57.2145 151.33 57.2666 151.642 57.3707 151.915C57.4768 152.186 57.6283 152.399 57.8253 152.554C58.0241 152.707 58.2647 152.784 58.5469 152.784C58.8366 152.784 59.081 152.705 59.2798 152.545C59.4806 152.384 59.633 152.168 59.7372 151.895C59.8433 151.622 59.8963 151.316 59.8963 150.977C59.8963 150.642 59.8442 150.34 59.7401 150.071C59.6378 149.802 59.4863 149.589 59.2855 149.432C59.0848 149.273 58.8385 149.193 58.5469 149.193C58.2628 149.193 58.0213 149.27 57.8224 149.423C57.6236 149.575 57.4721 149.785 57.3679 150.054C57.2656 150.321 57.2145 150.629 57.2145 150.977ZM62.7301 153.256C62.4669 153.256 62.2263 153.205 62.0085 153.102C61.7907 152.998 61.6174 152.848 61.4886 152.653C61.3598 152.456 61.2955 152.218 61.2955 151.938C61.2955 151.722 61.3362 151.54 61.4176 151.392C61.4991 151.244 61.6146 151.123 61.7642 151.028C61.9138 150.934 62.0909 150.859 62.2955 150.804C62.5 150.749 62.7254 150.706 62.9716 150.676C63.2159 150.646 63.4223 150.619 63.5909 150.597C63.7614 150.574 63.8911 150.538 63.9801 150.489C64.0691 150.439 64.1136 150.36 64.1136 150.25V150.148C64.1136 149.85 64.0246 149.616 63.8466 149.446C63.6705 149.274 63.4167 149.188 63.0852 149.188C62.7708 149.188 62.5142 149.257 62.3153 149.395C62.1184 149.533 61.9801 149.696 61.9006 149.884L61.4205 149.71C61.5189 149.472 61.6553 149.281 61.8295 149.139C62.0038 148.995 62.1989 148.892 62.4148 148.83C62.6307 148.765 62.8494 148.733 63.071 148.733C63.2377 148.733 63.411 148.755 63.5909 148.798C63.7727 148.842 63.9413 148.918 64.0966 149.026C64.2519 149.132 64.3778 149.28 64.4744 149.472C64.571 149.661 64.6193 149.902 64.6193 150.193V153.156H64.1136V152.466H64.0824C64.0218 152.595 63.9318 152.72 63.8125 152.841C63.6932 152.962 63.5436 153.062 63.3636 153.139C63.1837 153.217 62.9725 153.256 62.7301 153.256ZM62.7983 152.793C63.0672 152.793 63.3002 152.733 63.4972 152.614C63.6941 152.494 63.8456 152.336 63.9517 152.139C64.0597 151.94 64.1136 151.722 64.1136 151.483V150.852C64.0758 150.888 64.0123 150.92 63.9233 150.949C63.8362 150.977 63.7348 151.003 63.6193 151.026C63.5057 151.046 63.392 151.064 63.2784 151.08C63.1648 151.095 63.0625 151.108 62.9716 151.119C62.7254 151.15 62.5152 151.197 62.3409 151.261C62.1667 151.326 62.0331 151.415 61.9403 151.528C61.8475 151.64 61.8011 151.784 61.8011 151.96C61.8011 152.225 61.8958 152.431 62.0852 152.577C62.2746 152.721 62.5123 152.793 62.7983 152.793ZM66.4702 150.429V153.156H65.9645V148.793H66.456V149.477H66.5014C66.6037 149.254 66.7628 149.075 66.9787 148.94C67.1965 148.804 67.4654 148.736 67.7855 148.736C68.0791 148.736 68.3366 148.797 68.5582 148.92C68.7817 149.042 68.955 149.221 69.0781 149.457C69.2031 149.694 69.2656 149.985 69.2656 150.33V153.156H68.7599V150.361C68.7599 150.003 68.6596 149.72 68.4588 149.511C68.2599 149.303 67.9929 149.199 67.6577 149.199C67.4285 149.199 67.2249 149.248 67.0469 149.347C66.8688 149.445 66.7277 149.587 66.6236 149.773C66.5213 149.956 66.4702 150.175 66.4702 150.429ZM70.7933 154.793C70.6929 154.793 70.5992 154.783 70.5121 154.764C70.425 154.745 70.3558 154.724 70.3047 154.702L70.4411 154.256C70.6134 154.309 70.7668 154.328 70.9013 154.312C71.0357 154.299 71.1551 154.239 71.2592 154.131C71.3634 154.025 71.4562 153.862 71.5376 153.642L71.6967 153.199L70.0916 148.793H70.6399L71.9354 152.489H71.9751L73.2706 148.793H73.8189L71.9723 153.847C71.8946 154.057 71.799 154.232 71.6854 154.372C71.5717 154.514 71.4401 154.619 71.2905 154.688C71.1428 154.758 70.977 154.793 70.7933 154.793ZM78.277 153.256C78.0137 153.256 77.7732 153.205 77.5554 153.102C77.3376 152.998 77.1643 152.848 77.0355 152.653C76.9067 152.456 76.8423 152.218 76.8423 151.938C76.8423 151.722 76.883 151.54 76.9645 151.392C77.0459 151.244 77.1615 151.123 77.3111 151.028C77.4607 150.934 77.6378 150.859 77.8423 150.804C78.0469 150.749 78.2723 150.706 78.5185 150.676C78.7628 150.646 78.9692 150.619 79.1378 150.597C79.3082 150.574 79.438 150.538 79.527 150.489C79.616 150.439 79.6605 150.36 79.6605 150.25V150.148C79.6605 149.85 79.5715 149.616 79.3935 149.446C79.2173 149.274 78.9635 149.188 78.6321 149.188C78.3177 149.188 78.0611 149.257 77.8622 149.395C77.6652 149.533 77.527 149.696 77.4474 149.884L76.9673 149.71C77.0658 149.472 77.2022 149.281 77.3764 149.139C77.5507 148.995 77.7457 148.892 77.9616 148.83C78.1776 148.765 78.3963 148.733 78.6179 148.733C78.7846 148.733 78.9579 148.755 79.1378 148.798C79.3196 148.842 79.4882 148.918 79.6435 149.026C79.7988 149.132 79.9247 149.28 80.0213 149.472C80.1179 149.661 80.1662 149.902 80.1662 150.193V153.156H79.6605V152.466H79.6293C79.5687 152.595 79.4787 152.72 79.3594 152.841C79.2401 152.962 79.0904 153.062 78.9105 153.139C78.7306 153.217 78.5194 153.256 78.277 153.256ZM78.3452 152.793C78.6141 152.793 78.8471 152.733 79.044 152.614C79.241 152.494 79.3925 152.336 79.4986 152.139C79.6065 151.94 79.6605 151.722 79.6605 151.483V150.852C79.6226 150.888 79.5592 150.92 79.4702 150.949C79.383 150.977 79.2817 151.003 79.1662 151.026C79.0526 151.046 78.9389 151.064 78.8253 151.08C78.7116 151.095 78.6094 151.108 78.5185 151.119C78.2723 151.15 78.062 151.197 77.8878 151.261C77.7135 151.326 77.58 151.415 77.4872 151.528C77.3944 151.64 77.348 151.784 77.348 151.96C77.348 152.225 77.4427 152.431 77.6321 152.577C77.8215 152.721 78.0592 152.793 78.3452 152.793ZM83.0824 153.247C82.7244 153.247 82.411 153.152 82.142 152.963C81.8731 152.774 81.6629 152.509 81.5114 152.17C81.3617 151.831 81.2869 151.437 81.2869 150.986C81.2869 150.537 81.3617 150.144 81.5114 149.807C81.6629 149.468 81.8741 149.205 82.1449 149.017C82.4157 148.828 82.7311 148.733 83.0909 148.733C83.3561 148.733 83.5767 148.78 83.7528 148.875C83.929 148.968 84.0701 149.083 84.1761 149.222C84.2822 149.36 84.3646 149.494 84.4233 149.625H84.4688V147.338H84.9773V153.156H84.483V152.347H84.4233C84.3646 152.479 84.2813 152.616 84.1733 152.756C84.0653 152.894 83.9223 153.01 83.7443 153.105C83.5682 153.2 83.3475 153.247 83.0824 153.247ZM83.142 152.784C83.4242 152.784 83.6648 152.707 83.8636 152.554C84.0625 152.399 84.214 152.186 84.3182 151.915C84.4242 151.642 84.4773 151.33 84.4773 150.977C84.4773 150.629 84.4252 150.321 84.321 150.054C84.2169 149.785 84.0653 149.575 83.8665 149.423C83.6676 149.27 83.4261 149.193 83.142 149.193C82.8504 149.193 82.6042 149.273 82.4034 149.432C82.2045 149.589 82.053 149.802 81.9489 150.071C81.8466 150.34 81.7955 150.642 81.7955 150.977C81.7955 151.316 81.8475 151.622 81.9517 151.895C82.0559 152.168 82.2074 152.384 82.4062 152.545C82.607 152.705 82.8523 152.784 83.142 152.784ZM87.9886 153.247C87.6307 153.247 87.3172 153.152 87.0483 152.963C86.7794 152.774 86.5691 152.509 86.4176 152.17C86.268 151.831 86.1932 151.437 86.1932 150.986C86.1932 150.537 86.268 150.144 86.4176 149.807C86.5691 149.468 86.7803 149.205 87.0511 149.017C87.322 148.828 87.6373 148.733 87.9972 148.733C88.2623 148.733 88.483 148.78 88.6591 148.875C88.8352 148.968 88.9763 149.083 89.0824 149.222C89.1884 149.36 89.2708 149.494 89.3295 149.625H89.375V147.338H89.8835V153.156H89.3892V152.347H89.3295C89.2708 152.479 89.1875 152.616 89.0795 152.756C88.9716 152.894 88.8286 153.01 88.6506 153.105C88.4744 153.2 88.2538 153.247 87.9886 153.247ZM88.0483 152.784C88.3305 152.784 88.571 152.707 88.7699 152.554C88.9688 152.399 89.1203 152.186 89.2244 151.915C89.3305 151.642 89.3835 151.33 89.3835 150.977C89.3835 150.629 89.3314 150.321 89.2273 150.054C89.1231 149.785 88.9716 149.575 88.7727 149.423C88.5739 149.27 88.3324 149.193 88.0483 149.193C87.7566 149.193 87.5104 149.273 87.3097 149.432C87.1108 149.589 86.9593 149.802 86.8551 150.071C86.7528 150.34 86.7017 150.642 86.7017 150.977C86.7017 151.316 86.7538 151.622 86.858 151.895C86.9621 152.168 87.1136 152.384 87.3125 152.545C87.5133 152.705 87.7585 152.784 88.0483 152.784ZM91.3239 153.156V148.793H91.8153V149.463H91.8523C91.9394 149.243 92.0909 149.066 92.3068 148.932C92.5246 148.795 92.7708 148.727 93.0455 148.727C93.0871 148.727 93.1335 148.728 93.1847 148.73C93.2358 148.732 93.2784 148.734 93.3125 148.736V149.25C93.2898 149.246 93.25 149.241 93.1932 149.233C93.1364 149.225 93.0748 149.222 93.0085 149.222C92.7813 149.222 92.5786 149.27 92.4006 149.366C92.2244 149.461 92.0852 149.593 91.983 149.761C91.8807 149.93 91.8295 150.122 91.8295 150.338V153.156H91.3239ZM95.8068 153.247C95.3996 153.247 95.0473 153.152 94.75 152.963C94.4527 152.772 94.2225 152.508 94.0597 152.17C93.8987 151.831 93.8182 151.441 93.8182 151C93.8182 150.561 93.8987 150.17 94.0597 149.83C94.2225 149.487 94.447 149.219 94.733 149.026C95.0208 148.83 95.3532 148.733 95.7301 148.733C95.9669 148.733 96.1951 148.777 96.4148 148.864C96.6345 148.949 96.8314 149.08 97.0057 149.259C97.1818 149.435 97.321 149.657 97.4233 149.926C97.5256 150.193 97.5767 150.509 97.5767 150.875V151.125H94.1676V150.679H97.0597C97.0597 150.399 97.0028 150.147 96.8892 149.923C96.7775 149.698 96.6212 149.52 96.4205 149.389C96.2216 149.259 95.9915 149.193 95.7301 149.193C95.4536 149.193 95.2102 149.267 95 149.415C94.7898 149.562 94.625 149.758 94.5057 150C94.3883 150.242 94.3286 150.508 94.3267 150.795V151.062C94.3267 151.409 94.3864 151.712 94.5057 151.972C94.6269 152.229 94.7983 152.429 95.0199 152.571C95.2415 152.713 95.5038 152.784 95.8068 152.784C96.0133 152.784 96.1941 152.752 96.3494 152.688C96.5066 152.623 96.6383 152.537 96.7443 152.429C96.8523 152.319 96.9337 152.199 96.9886 152.068L97.4688 152.224C97.4025 152.408 97.2936 152.578 97.142 152.733C96.9924 152.888 96.8049 153.013 96.5795 153.108C96.3561 153.201 96.0985 153.247 95.8068 153.247ZM101.623 149.75L101.16 149.881C101.114 149.75 101.05 149.632 100.967 149.526C100.883 149.42 100.774 149.335 100.64 149.273C100.507 149.21 100.343 149.179 100.146 149.179C99.8501 149.179 99.6077 149.249 99.4183 149.389C99.2289 149.529 99.1342 149.71 99.1342 149.932C99.1342 150.119 99.1986 150.272 99.3274 150.389C99.4581 150.505 99.6589 150.597 99.9297 150.665L100.589 150.827C100.954 150.916 101.228 151.057 101.41 151.25C101.594 151.443 101.685 151.686 101.685 151.977C101.685 152.223 101.617 152.442 101.481 152.634C101.344 152.825 101.154 152.975 100.91 153.085C100.667 153.193 100.386 153.247 100.066 153.247C99.6399 153.247 99.2886 153.152 99.0121 152.96C98.7356 152.767 98.5585 152.489 98.4808 152.125L98.9666 152.006C99.0291 152.265 99.1513 152.461 99.3331 152.594C99.5168 152.726 99.7583 152.793 100.058 152.793C100.393 152.793 100.661 152.718 100.862 152.568C101.062 152.417 101.163 152.227 101.163 152C101.163 151.824 101.104 151.676 100.987 151.557C100.869 151.436 100.691 151.347 100.452 151.29L99.7393 151.119C99.3606 151.028 99.0803 150.884 98.8984 150.688C98.7166 150.491 98.6257 150.246 98.6257 149.955C98.6257 149.714 98.6911 149.503 98.8217 149.321C98.9524 149.137 99.1323 148.993 99.3615 148.889C99.5907 148.785 99.852 148.733 100.146 148.733C100.545 148.733 100.864 148.824 101.103 149.006C101.344 149.186 101.517 149.434 101.623 149.75ZM105.724 149.75L105.261 149.881C105.216 149.75 105.152 149.632 105.068 149.526C104.985 149.42 104.876 149.335 104.741 149.273C104.609 149.21 104.444 149.179 104.247 149.179C103.952 149.179 103.709 149.249 103.52 149.389C103.33 149.529 103.236 149.71 103.236 149.932C103.236 150.119 103.3 150.272 103.429 150.389C103.56 150.505 103.76 150.597 104.031 150.665L104.69 150.827C105.056 150.916 105.33 151.057 105.511 151.25C105.695 151.443 105.787 151.686 105.787 151.977C105.787 152.223 105.719 152.442 105.582 152.634C105.446 152.825 105.256 152.975 105.011 153.085C104.769 153.193 104.488 153.247 104.168 153.247C103.741 153.247 103.39 153.152 103.114 152.96C102.837 152.767 102.66 152.489 102.582 152.125L103.068 152.006C103.131 152.265 103.253 152.461 103.435 152.594C103.618 152.726 103.86 152.793 104.159 152.793C104.494 152.793 104.762 152.718 104.963 152.568C105.164 152.417 105.264 152.227 105.264 152C105.264 151.824 105.205 151.676 105.088 151.557C104.971 151.436 104.793 151.347 104.554 151.29L103.841 151.119C103.462 151.028 103.182 150.884 103 150.688C102.818 150.491 102.727 150.246 102.727 149.955C102.727 149.714 102.793 149.503 102.923 149.321C103.054 149.137 103.234 148.993 103.463 148.889C103.692 148.785 103.954 148.733 104.247 148.733C104.647 148.733 104.966 148.824 105.205 149.006C105.445 149.186 105.618 149.434 105.724 149.75Z" fill="black"/>
<g clip-path="url(#clip0_2111_57)">
<path fill-rule="evenodd" clip-rule="evenodd" d="M30 154.031L30.3004 153.691C30.6414 153.298 30.9481 152.926 31.2209 152.571L31.4462 152.273C32.3866 150.999 32.8571 149.988 32.8571 149.241C32.8571 147.646 31.5781 146.353 30 146.353C28.4219 146.353 27.1428 147.646 27.1428 149.241C27.1428 149.988 27.6133 150.999 28.5538 152.273L28.779 152.571C29.1683 153.073 29.5755 153.56 30 154.031V154.031Z" stroke="black" stroke-width="0.8375" stroke-linecap="round" stroke-linejoin="round"/>
<path d="M30 150.422C30.6575 150.422 31.1905 149.886 31.1905 149.225C31.1905 148.564 30.6575 148.028 30 148.028C29.3425 148.028 28.8095 148.564 28.8095 149.225C28.8095 149.886 29.3425 150.422 30 150.422Z" stroke="black" stroke-width="0.8375" stroke-linecap="round" stroke-linejoin="round"/>
</g>
<path d="M42.4318 138.169C42.0246 138.169 41.6723 138.074 41.375 137.885C41.0777 137.694 40.8475 137.429 40.6847 137.092C40.5237 136.753 40.4432 136.363 40.4432 135.922C40.4432 135.482 40.5237 135.092 40.6847 134.751C40.8475 134.409 41.072 134.141 41.358 133.947C41.6458 133.752 41.9782 133.655 42.3551 133.655C42.5919 133.655 42.8201 133.698 43.0398 133.786C43.2595 133.871 43.4564 134.002 43.6307 134.18C43.8068 134.357 43.946 134.579 44.0483 134.848C44.1506 135.115 44.2017 135.431 44.2017 135.797V136.047H40.7926V135.601H43.6847C43.6847 135.321 43.6278 135.069 43.5142 134.845C43.4025 134.62 43.2462 134.442 43.0455 134.311C42.8466 134.18 42.6165 134.115 42.3551 134.115C42.0786 134.115 41.8352 134.189 41.625 134.337C41.4148 134.484 41.25 134.679 41.1307 134.922C41.0133 135.164 40.9536 135.429 40.9517 135.717V135.984C40.9517 136.331 41.0114 136.634 41.1307 136.893C41.2519 137.151 41.4233 137.351 41.6449 137.493C41.8665 137.635 42.1288 137.706 42.4318 137.706C42.6383 137.706 42.8191 137.674 42.9744 137.609C43.1316 137.545 43.2633 137.459 43.3693 137.351C43.4773 137.241 43.5587 137.121 43.6136 136.99L44.0938 137.146C44.0275 137.33 43.9186 137.5 43.767 137.655C43.6174 137.81 43.4299 137.935 43.2045 138.03C42.9811 138.123 42.7235 138.169 42.4318 138.169ZM45.3161 138.078V133.714H45.8075V134.385H45.853C45.9401 134.16 46.085 133.982 46.2876 133.854C46.4922 133.723 46.7375 133.658 47.0234 133.658C47.3246 133.658 47.5717 133.729 47.7649 133.871C47.96 134.011 48.1058 134.204 48.2024 134.45H48.2393C48.3378 134.208 48.4979 134.016 48.7195 133.874C48.9429 133.73 49.2138 133.658 49.532 133.658C49.9373 133.658 50.2573 133.786 50.4922 134.041C50.727 134.295 50.8445 134.666 50.8445 135.155V138.078H50.3388V135.155C50.3388 134.81 50.2507 134.552 50.0746 134.379C49.8984 134.207 49.6664 134.121 49.3786 134.121C49.0452 134.121 48.7886 134.223 48.6087 134.428C48.4287 134.632 48.3388 134.892 48.3388 135.206V138.078H47.8217V135.109C47.8217 134.814 47.7393 134.575 47.5746 134.393C47.4098 134.212 47.1778 134.121 46.8786 134.121C46.6778 134.121 46.4969 134.17 46.3359 134.268C46.1768 134.367 46.0509 134.504 45.9581 134.68C45.8672 134.855 45.8217 135.055 45.8217 135.283V138.078H45.3161ZM53.402 138.178C53.1387 138.178 52.8982 138.126 52.6804 138.024C52.4626 137.92 52.2893 137.77 52.1605 137.575C52.0317 137.378 51.9673 137.14 51.9673 136.859C51.9673 136.643 52.008 136.462 52.0895 136.314C52.1709 136.166 52.2865 136.045 52.4361 135.95C52.5857 135.856 52.7628 135.781 52.9673 135.726C53.1719 135.671 53.3973 135.628 53.6435 135.598C53.8878 135.568 54.0942 135.541 54.2628 135.518C54.4332 135.496 54.563 135.46 54.652 135.411C54.741 135.361 54.7855 135.282 54.7855 135.172V135.07C54.7855 134.772 54.6965 134.538 54.5185 134.368C54.3423 134.196 54.0885 134.109 53.7571 134.109C53.4427 134.109 53.1861 134.179 52.9872 134.317C52.7902 134.455 52.652 134.618 52.5724 134.805L52.0923 134.632C52.1908 134.393 52.3272 134.203 52.5014 134.061C52.6757 133.917 52.8707 133.814 53.0866 133.751C53.3026 133.687 53.5213 133.655 53.7429 133.655C53.9096 133.655 54.0829 133.677 54.2628 133.72C54.4446 133.764 54.6132 133.839 54.7685 133.947C54.9238 134.054 55.0497 134.202 55.1463 134.393C55.2429 134.583 55.2912 134.823 55.2912 135.115V138.078H54.7855V137.388H54.7543C54.6937 137.517 54.6037 137.642 54.4844 137.763C54.3651 137.884 54.2154 137.983 54.0355 138.061C53.8556 138.139 53.6444 138.178 53.402 138.178ZM53.4702 137.714C53.7391 137.714 53.9721 137.655 54.169 137.536C54.366 137.416 54.5175 137.258 54.6236 137.061C54.7315 136.862 54.7855 136.643 54.7855 136.405V135.774C54.7476 135.81 54.6842 135.842 54.5952 135.871C54.508 135.899 54.4067 135.925 54.2912 135.947C54.1776 135.968 54.0639 135.986 53.9503 136.001C53.8366 136.017 53.7344 136.03 53.6435 136.041C53.3973 136.071 53.187 136.119 53.0128 136.183C52.8385 136.248 52.705 136.337 52.6122 136.45C52.5194 136.562 52.473 136.706 52.473 136.882C52.473 137.147 52.5677 137.353 52.7571 137.499C52.9465 137.643 53.1842 137.714 53.4702 137.714ZM56.642 138.078V133.714H57.1506V138.078H56.642ZM56.9006 132.964C56.7964 132.964 56.7074 132.929 56.6335 132.859C56.5597 132.787 56.5227 132.701 56.5227 132.601C56.5227 132.5 56.5597 132.415 56.6335 132.345C56.7074 132.273 56.7964 132.237 56.9006 132.237C57.0047 132.237 57.0938 132.273 57.1676 132.345C57.2415 132.415 57.2784 132.5 57.2784 132.601C57.2784 132.701 57.2415 132.787 57.1676 132.859C57.0938 132.929 57.0047 132.964 56.9006 132.964ZM58.9936 132.26V138.078H58.4879V132.26H58.9936Z" fill="black"/>
<path d="M33.3333 132.172H26.6667C26.4365 132.172 26.25 132.36 26.25 132.591V137.617C26.25 137.849 26.4365 138.036 26.6667 138.036H33.3333C33.5635 138.036 33.75 137.849 33.75 137.617V132.591C33.75 132.36 33.5635 132.172 33.3333 132.172Z" stroke="black" stroke-width="0.833333" stroke-linecap="round"/>
<path d="M26.25 132.801L30 135.104L33.75 132.801" stroke="black" stroke-width="0.833333" stroke-linecap="round"/>
<path d="M29.3974 117.613L27.9878 115.978C27.8253 115.789 27.5274 115.79 27.3386 115.98L26.1795 117.148C25.8345 117.495 25.7357 118.011 25.9353 118.424C27.1277 120.905 29.1187 122.91 31.5857 124.112C31.9966 124.312 32.5091 124.213 32.8541 123.866L34.0241 122.688C34.2136 122.497 34.2141 122.196 34.0249 122.033L32.3916 120.623C32.2207 120.476 31.9553 120.495 31.7841 120.668L31.2157 121.24C31.1866 121.27 31.1483 121.291 31.1067 121.297C31.0651 121.304 31.0224 121.297 30.9853 121.277C30.0563 120.739 29.2857 119.963 28.752 119.029C28.732 118.991 28.7248 118.948 28.7314 118.906C28.738 118.865 28.7581 118.826 28.7886 118.797L29.3553 118.227C29.527 118.053 29.5457 117.785 29.3974 117.613V117.613Z" stroke="black" stroke-width="0.833333" stroke-linecap="round" stroke-linejoin="round"/>
    <text x="40.5" y="123" font-family="Arial" font-size="9" fill="black">
        phone
    </text>
<defs>
<linearGradient id="paint0_linear_2111_57" x1="3" y1="90.5" x2="336" y2="96" gradientUnits="userSpaceOnUse">
<stop stop-color="#9A53E1" stop-opacity="0.9"/>
<stop offset="1" stop-color="#CCA0F8" stop-opacity="0.9"/>
</linearGradient>
<radialGradient id="paint1_radial_2111_57" cx="0" cy="0" r="1" gradientUnits="userSpaceOnUse" gradientTransform="translate(139.378 89.5) rotate(0.291397) scale(196.625 110.521)">
<stop stop-color="#35D99E"/>
<stop offset="1" stop-color="#3999DF" stop-opacity="0"/>
</radialGradient>
<clipPath id="clip0_2111_57">
<rect width="10" height="10.0521" fill="white" transform="translate(25 145.156)"/>
</clipPath>
</defs>
</svg>
