<svg width="1098" height="648" viewBox="0 0 1098 648" fill="none" xmlns="http://www.w3.org/2000/svg">
<g filter="url(#filter0_b_2111_94)">
<rect width="1098" height="648" fill="white"/>
</g>
<path d="M480.37 310V276.4H486.418L501.25 304.336V276.4H505.57V310H499.618L484.69 282.256V310H480.37ZM528.086 310.576C526.006 310.576 524.118 310.048 522.422 308.992C520.726 307.936 519.366 306.448 518.342 304.528C517.35 302.576 516.854 300.288 516.854 297.664C516.854 295.168 517.35 292.928 518.342 290.944C519.366 288.96 520.758 287.392 522.518 286.24C524.31 285.056 526.358 284.464 528.662 284.464C530.102 284.464 531.398 284.72 532.55 285.232C533.734 285.712 534.758 286.32 535.622 287.056V285.04H539.558V303.952C539.558 305.168 539.846 305.968 540.422 306.352C541.03 306.704 541.686 306.88 542.39 306.88L541.478 310.24C538.406 310.24 536.55 308.992 535.91 306.496C535.174 307.52 534.166 308.464 532.886 309.328C531.638 310.16 530.038 310.576 528.086 310.576ZM529.046 306.736C530.262 306.736 531.414 306.448 532.502 305.872C533.59 305.264 534.502 304.512 535.238 303.616V290.224C534.374 289.616 533.414 289.136 532.358 288.784C531.334 288.4 530.246 288.208 529.094 288.208C527.558 288.208 526.198 288.608 525.014 289.408C523.862 290.176 522.95 291.264 522.278 292.672C521.606 294.048 521.27 295.664 521.27 297.52C521.27 299.312 521.606 300.912 522.278 302.32C522.95 303.696 523.878 304.784 525.062 305.584C526.246 306.352 527.574 306.736 529.046 306.736ZM552.959 310V285.04H557.135V289.216C558.031 287.872 559.167 286.752 560.543 285.856C561.919 284.928 563.487 284.464 565.247 284.464C567.231 284.464 568.847 284.944 570.095 285.904C571.375 286.864 572.271 288.144 572.783 289.744C573.775 288.272 574.943 287.024 576.287 286C577.663 284.976 579.359 284.464 581.375 284.464C584.095 284.464 586.111 285.328 587.423 287.056C588.767 288.752 589.439 290.976 589.439 293.728V310H585.119V294.064C585.119 292.336 584.719 290.944 583.919 289.888C583.119 288.8 582.015 288.256 580.607 288.256C579.167 288.256 577.823 288.8 576.575 289.888C575.359 290.944 574.287 292.192 573.359 293.632V310H569.039V294.064C569.039 292.336 568.639 290.944 567.839 289.888C567.039 288.8 565.935 288.256 564.527 288.256C563.119 288.256 561.791 288.784 560.543 289.84C559.295 290.864 558.207 292.08 557.279 293.488V310H552.959ZM611.665 310.576C608.081 310.576 605.233 309.44 603.121 307.168C601.041 304.864 600.001 301.648 600.001 297.52C600.001 295.024 600.465 292.8 601.393 290.848C602.353 288.864 603.681 287.312 605.377 286.192C607.073 285.04 609.041 284.464 611.281 284.464C613.681 284.464 615.665 284.992 617.233 286.048C618.833 287.072 620.033 288.464 620.833 290.224C621.633 291.984 622.033 293.92 622.033 296.032C622.033 297.152 621.985 298.24 621.889 299.296H604.417C604.705 301.632 605.521 303.456 606.865 304.768C608.209 306.08 609.985 306.736 612.193 306.736C613.633 306.736 614.929 306.592 616.081 306.304C617.233 305.984 618.337 305.584 619.393 305.104L620.401 308.8C619.249 309.312 617.953 309.728 616.513 310.048C615.073 310.4 613.457 310.576 611.665 310.576ZM604.369 295.792H618.049C618.049 293.36 617.441 291.488 616.225 290.176C615.009 288.864 613.329 288.208 611.185 288.208C609.329 288.208 607.793 288.864 606.577 290.176C605.361 291.456 604.625 293.328 604.369 295.792Z" fill="black"/>
<rect x="399" y="338" width="300" height="1" fill="black"/>
<path d="M455.444 376.288C454.26 376.288 453.22 376.016 452.324 375.472C451.444 374.912 450.764 374.144 450.284 373.168C449.804 372.176 449.564 371.04 449.564 369.76C449.564 368.56 449.804 367.464 450.284 366.472C450.78 365.48 451.484 364.696 452.396 364.12C453.308 363.528 454.38 363.232 455.612 363.232C456.316 363.232 456.932 363.296 457.46 363.424C458.004 363.552 458.524 363.736 459.02 363.976L458.372 365.8C457.924 365.576 457.492 365.416 457.076 365.32C456.676 365.208 456.228 365.152 455.732 365.152C454.612 365.152 453.668 365.56 452.9 366.376C452.148 367.176 451.772 368.288 451.772 369.712C451.772 370.576 451.932 371.36 452.252 372.064C452.572 372.768 453.012 373.328 453.572 373.744C454.148 374.16 454.82 374.368 455.588 374.368C456.196 374.368 456.716 374.304 457.148 374.176C457.58 374.032 458.044 373.832 458.54 373.576L459.212 375.4C458.716 375.672 458.156 375.888 457.532 376.048C456.924 376.208 456.228 376.288 455.444 376.288ZM469.146 376.288C467.962 376.288 466.898 376.016 465.954 375.472C465.01 374.912 464.266 374.144 463.722 373.168C463.194 372.176 462.93 371.04 462.93 369.76C462.93 368.416 463.202 367.256 463.746 366.28C464.29 365.304 465.034 364.552 465.978 364.024C466.922 363.496 467.978 363.232 469.146 363.232C470.314 363.232 471.362 363.496 472.29 364.024C473.234 364.552 473.978 365.304 474.522 366.28C475.082 367.24 475.362 368.384 475.362 369.712C475.362 371.04 475.09 372.2 474.546 373.192C474.002 374.168 473.258 374.928 472.314 375.472C471.386 376.016 470.33 376.288 469.146 376.288ZM469.146 374.368C470.41 374.368 471.394 373.944 472.098 373.096C472.802 372.232 473.154 371.12 473.154 369.76C473.154 368.928 472.978 368.168 472.626 367.48C472.274 366.776 471.794 366.216 471.186 365.8C470.594 365.368 469.914 365.152 469.146 365.152C467.882 365.152 466.898 365.568 466.194 366.4C465.49 367.232 465.138 368.336 465.138 369.712C465.138 370.544 465.314 371.32 465.666 372.04C466.018 372.744 466.49 373.312 467.082 373.744C467.69 374.16 468.378 374.368 469.146 374.368ZM480.633 376V363.52H482.721V365.608C483.169 364.936 483.737 364.376 484.425 363.928C485.113 363.464 485.897 363.232 486.777 363.232C487.769 363.232 488.577 363.472 489.201 363.952C489.841 364.432 490.289 365.072 490.545 365.872C491.041 365.136 491.625 364.512 492.297 364C492.985 363.488 493.833 363.232 494.841 363.232C496.201 363.232 497.209 363.664 497.865 364.528C498.537 365.376 498.873 366.488 498.873 367.864V376H496.713V368.032C496.713 367.168 496.513 366.472 496.113 365.944C495.713 365.4 495.161 365.128 494.457 365.128C493.737 365.128 493.065 365.4 492.441 365.944C491.833 366.472 491.297 367.096 490.833 367.816V376H488.673V368.032C488.673 367.168 488.473 366.472 488.073 365.944C487.673 365.4 487.121 365.128 486.417 365.128C485.713 365.128 485.049 365.392 484.425 365.92C483.801 366.432 483.257 367.04 482.793 367.744V376H480.633ZM505.45 381.28V366.712C505.45 366.168 505.314 365.784 505.042 365.56C504.786 365.32 504.45 365.2 504.034 365.2L504.49 363.52C505.962 363.52 506.882 364.104 507.25 365.272C507.41 365.032 507.666 364.752 508.018 364.432C508.386 364.112 508.834 363.832 509.362 363.592C509.906 363.352 510.522 363.232 511.21 363.232C512.17 363.232 513.066 363.488 513.898 364C514.746 364.496 515.426 365.224 515.938 366.184C516.45 367.128 516.706 368.28 516.706 369.64C516.706 370.968 516.45 372.136 515.938 373.144C515.426 374.136 514.754 374.912 513.922 375.472C513.106 376.016 512.218 376.288 511.258 376.288C510.522 376.288 509.834 376.144 509.194 375.856C508.554 375.552 508.026 375.208 507.61 374.824V381.28H505.45ZM510.826 374.368C511.914 374.368 512.794 373.944 513.466 373.096C514.154 372.232 514.498 371.104 514.498 369.712C514.498 368.752 514.322 367.928 513.97 367.24C513.634 366.552 513.178 366.024 512.602 365.656C512.042 365.288 511.418 365.104 510.73 365.104C510.042 365.104 509.418 365.28 508.858 365.632C508.314 365.968 507.898 366.336 507.61 366.736V372.88C508.026 373.312 508.506 373.672 509.05 373.96C509.594 374.232 510.186 374.368 510.826 374.368ZM526.889 376.288C525.849 376.288 524.905 376.024 524.057 375.496C523.209 374.968 522.529 374.224 522.017 373.264C521.521 372.288 521.273 371.144 521.273 369.832C521.273 368.584 521.521 367.464 522.017 366.472C522.529 365.48 523.225 364.696 524.105 364.12C525.001 363.528 526.025 363.232 527.177 363.232C527.897 363.232 528.545 363.36 529.121 363.616C529.713 363.856 530.225 364.16 530.657 364.528V363.52H532.625V372.976C532.625 373.584 532.769 373.984 533.057 374.176C533.361 374.352 533.689 374.44 534.041 374.44L533.585 376.12C532.049 376.12 531.121 375.496 530.801 374.248C530.433 374.76 529.929 375.232 529.289 375.664C528.665 376.08 527.865 376.288 526.889 376.288ZM527.369 374.368C527.977 374.368 528.553 374.224 529.097 373.936C529.641 373.632 530.097 373.256 530.465 372.808V366.112C530.033 365.808 529.553 365.568 529.025 365.392C528.513 365.2 527.969 365.104 527.393 365.104C526.625 365.104 525.945 365.304 525.353 365.704C524.777 366.088 524.321 366.632 523.985 367.336C523.649 368.024 523.481 368.832 523.481 369.76C523.481 370.656 523.649 371.456 523.985 372.16C524.321 372.848 524.785 373.392 525.377 373.792C525.969 374.176 526.633 374.368 527.369 374.368ZM539.325 376V363.52H541.413V365.608C541.861 364.936 542.429 364.376 543.117 363.928C543.821 363.464 544.653 363.232 545.613 363.232C547.021 363.232 548.069 363.656 548.757 364.504C549.461 365.352 549.813 366.472 549.813 367.864V376H547.653V368.104C547.653 367.208 547.437 366.488 547.005 365.944C546.589 365.4 546.005 365.128 545.253 365.128C544.517 365.128 543.821 365.392 543.165 365.92C542.509 366.432 541.949 367.04 541.485 367.744V376H539.325ZM556.241 381.568C555.761 381.568 555.337 381.52 554.969 381.424C554.617 381.328 554.337 381.216 554.129 381.088L554.609 379.288C554.801 379.4 555.041 379.496 555.329 379.576C555.617 379.656 555.937 379.696 556.289 379.696C556.961 379.696 557.561 379.48 558.089 379.048C558.617 378.616 559.121 377.768 559.601 376.504L560.153 375.064H559.001L554.129 364.096L556.049 363.232L560.705 373.624L564.329 363.328L566.321 364.096L561.737 376.624C561.273 377.904 560.769 378.904 560.225 379.624C559.681 380.344 559.081 380.848 558.425 381.136C557.769 381.424 557.041 381.568 556.241 381.568ZM580.726 376V359.2H583.75L591.166 373.168V359.2H593.326V376H590.35L582.886 362.128V376H580.726ZM604.584 376.288C603.544 376.288 602.6 376.024 601.752 375.496C600.904 374.968 600.224 374.224 599.712 373.264C599.216 372.288 598.968 371.144 598.968 369.832C598.968 368.584 599.216 367.464 599.712 366.472C600.224 365.48 600.92 364.696 601.8 364.12C602.696 363.528 603.72 363.232 604.872 363.232C605.592 363.232 606.24 363.36 606.816 363.616C607.408 363.856 607.92 364.16 608.352 364.528V363.52H610.32V372.976C610.32 373.584 610.464 373.984 610.752 374.176C611.056 374.352 611.384 374.44 611.736 374.44L611.28 376.12C609.744 376.12 608.816 375.496 608.496 374.248C608.128 374.76 607.624 375.232 606.984 375.664C606.36 376.08 605.56 376.288 604.584 376.288ZM605.064 374.368C605.672 374.368 606.248 374.224 606.792 373.936C607.336 373.632 607.792 373.256 608.16 372.808V366.112C607.728 365.808 607.248 365.568 606.72 365.392C606.208 365.2 605.664 365.104 605.088 365.104C604.32 365.104 603.64 365.304 603.048 365.704C602.472 366.088 602.016 366.632 601.68 367.336C601.344 368.024 601.176 368.832 601.176 369.76C601.176 370.656 601.344 371.456 601.68 372.16C602.016 372.848 602.48 373.392 603.072 373.792C603.664 374.176 604.328 374.368 605.064 374.368ZM617.021 376V363.52H619.109V365.608C619.557 364.936 620.125 364.376 620.813 363.928C621.501 363.464 622.285 363.232 623.165 363.232C624.157 363.232 624.965 363.472 625.589 363.952C626.229 364.432 626.677 365.072 626.933 365.872C627.429 365.136 628.013 364.512 628.685 364C629.373 363.488 630.221 363.232 631.229 363.232C632.589 363.232 633.597 363.664 634.253 364.528C634.925 365.376 635.261 366.488 635.261 367.864V376H633.101V368.032C633.101 367.168 632.901 366.472 632.501 365.944C632.101 365.4 631.549 365.128 630.845 365.128C630.125 365.128 629.453 365.4 628.829 365.944C628.221 366.472 627.685 367.096 627.221 367.816V376H625.061V368.032C625.061 367.168 624.861 366.472 624.461 365.944C624.061 365.4 623.509 365.128 622.805 365.128C622.101 365.128 621.437 365.392 620.813 365.92C620.189 366.432 619.645 367.04 619.181 367.744V376H617.021ZM646.374 376.288C644.582 376.288 643.158 375.72 642.102 374.584C641.062 373.432 640.542 371.824 640.542 369.76C640.542 368.512 640.774 367.4 641.238 366.424C641.718 365.432 642.382 364.656 643.23 364.096C644.078 363.52 645.062 363.232 646.182 363.232C647.382 363.232 648.374 363.496 649.158 364.024C649.958 364.536 650.558 365.232 650.958 366.112C651.358 366.992 651.558 367.96 651.558 369.016C651.558 369.576 651.534 370.12 651.486 370.648H642.75C642.894 371.816 643.302 372.728 643.974 373.384C644.646 374.04 645.534 374.368 646.638 374.368C647.358 374.368 648.006 374.296 648.582 374.152C649.158 373.992 649.71 373.792 650.238 373.552L650.742 375.4C650.166 375.656 649.518 375.864 648.798 376.024C648.078 376.2 647.27 376.288 646.374 376.288ZM642.726 368.896H649.566C649.566 367.68 649.262 366.744 648.654 366.088C648.046 365.432 647.206 365.104 646.134 365.104C645.206 365.104 644.438 365.432 643.83 366.088C643.222 366.728 642.854 367.664 642.726 368.896Z" fill="black"/>
<path d="M977.28 356.386H962.712C962.168 356.386 961.784 356.522 961.56 356.794C961.32 357.05 961.2 357.386 961.2 357.802L959.52 357.346C959.52 355.874 960.104 354.954 961.272 354.586C961.032 354.426 960.752 354.17 960.432 353.818C960.112 353.45 959.832 353.002 959.592 352.474C959.352 351.93 959.232 351.314 959.232 350.626C959.232 349.666 959.488 348.77 960 347.938C960.496 347.09 961.224 346.41 962.184 345.898C963.128 345.386 964.28 345.13 965.64 345.13C966.968 345.13 968.136 345.386 969.144 345.898C970.136 346.41 970.912 347.082 971.472 347.914C972.016 348.73 972.288 349.618 972.288 350.578C972.288 351.314 972.144 352.002 971.856 352.642C971.552 353.282 971.208 353.81 970.824 354.226H977.28V356.386ZM970.368 351.01C970.368 349.922 969.944 349.042 969.096 348.37C968.232 347.682 967.104 347.338 965.712 347.338C964.752 347.338 963.928 347.514 963.24 347.866C962.552 348.202 962.024 348.658 961.656 349.234C961.288 349.794 961.104 350.418 961.104 351.106C961.104 351.794 961.28 352.418 961.632 352.978C961.968 353.522 962.336 353.938 962.736 354.226H968.88C969.312 353.81 969.672 353.33 969.96 352.786C970.232 352.242 970.368 351.65 970.368 351.01ZM972 342.123H954.24V339.963H961.512C960.856 339.515 960.312 338.947 959.88 338.259C959.448 337.571 959.232 336.763 959.232 335.835C959.232 334.427 959.656 333.379 960.504 332.691C961.352 331.987 962.472 331.635 963.864 331.635H972V333.795H964.104C963.208 333.795 962.488 334.003 961.944 334.419C961.4 334.835 961.128 335.419 961.128 336.171C961.128 336.907 961.392 337.611 961.92 338.283C962.432 338.939 963.04 339.499 963.744 339.963H972V342.123ZM972.288 322.664C972.288 323.848 972.016 324.912 971.472 325.856C970.912 326.8 970.144 327.544 969.168 328.088C968.176 328.616 967.04 328.88 965.76 328.88C964.416 328.88 963.256 328.608 962.28 328.064C961.304 327.52 960.552 326.776 960.024 325.832C959.496 324.888 959.232 323.832 959.232 322.664C959.232 321.496 959.496 320.448 960.024 319.52C960.552 318.576 961.304 317.832 962.28 317.288C963.24 316.728 964.384 316.448 965.712 316.448C967.04 316.448 968.2 316.72 969.192 317.264C970.168 317.808 970.928 318.552 971.472 319.496C972.016 320.424 972.288 321.48 972.288 322.664ZM970.368 322.664C970.368 321.4 969.944 320.416 969.096 319.712C968.232 319.008 967.12 318.656 965.76 318.656C964.928 318.656 964.168 318.832 963.48 319.184C962.776 319.536 962.216 320.016 961.8 320.624C961.368 321.216 961.152 321.896 961.152 322.664C961.152 323.928 961.568 324.912 962.4 325.616C963.232 326.32 964.336 326.672 965.712 326.672C966.544 326.672 967.32 326.496 968.04 326.144C968.744 325.792 969.312 325.32 969.744 324.728C970.16 324.12 970.368 323.432 970.368 322.664ZM972 313.576H959.52V311.488H961.608C960.936 311.04 960.376 310.472 959.928 309.784C959.464 309.08 959.232 308.248 959.232 307.288C959.232 305.88 959.656 304.832 960.504 304.144C961.352 303.44 962.472 303.088 963.864 303.088H972V305.248H964.104C963.208 305.248 962.488 305.464 961.944 305.896C961.4 306.312 961.128 306.896 961.128 307.648C961.128 308.384 961.392 309.08 961.92 309.736C962.432 310.392 963.04 310.952 963.744 311.416H972V313.576ZM972.288 294.381C972.288 296.173 971.72 297.597 970.584 298.653C969.432 299.693 967.824 300.213 965.76 300.213C964.512 300.213 963.4 299.981 962.424 299.517C961.432 299.037 960.656 298.373 960.096 297.525C959.52 296.677 959.232 295.693 959.232 294.573C959.232 293.373 959.496 292.381 960.024 291.597C960.536 290.797 961.232 290.197 962.112 289.797C962.992 289.397 963.96 289.197 965.016 289.197C965.576 289.197 966.12 289.221 966.648 289.269V298.005C967.816 297.861 968.728 297.453 969.384 296.781C970.04 296.109 970.368 295.221 970.368 294.117C970.368 293.397 970.296 292.749 970.152 292.173C969.992 291.597 969.792 291.045 969.552 290.517L971.4 290.013C971.656 290.589 971.864 291.237 972.024 291.957C972.2 292.677 972.288 293.485 972.288 294.381ZM964.896 298.029V291.189C963.68 291.189 962.744 291.493 962.088 292.101C961.432 292.709 961.104 293.549 961.104 294.621C961.104 295.549 961.432 296.317 962.088 296.925C962.728 297.533 963.664 297.901 964.896 298.029Z" fill="black"/>
<path d="M141.288 348.65C141.288 350.442 140.72 351.866 139.584 352.922C138.432 353.962 136.824 354.482 134.76 354.482C133.512 354.482 132.4 354.25 131.424 353.786C130.432 353.306 129.656 352.642 129.096 351.794C128.52 350.946 128.232 349.962 128.232 348.842C128.232 347.642 128.496 346.65 129.024 345.866C129.536 345.066 130.232 344.466 131.112 344.066C131.992 343.666 132.96 343.466 134.016 343.466C134.576 343.466 135.12 343.49 135.648 343.538V352.274C136.816 352.13 137.728 351.722 138.384 351.05C139.04 350.378 139.368 349.49 139.368 348.386C139.368 347.666 139.296 347.018 139.152 346.442C138.992 345.866 138.792 345.314 138.552 344.786L140.4 344.282C140.656 344.858 140.864 345.506 141.024 346.226C141.2 346.946 141.288 347.754 141.288 348.65ZM133.896 352.298V345.458C132.68 345.458 131.744 345.762 131.088 346.37C130.432 346.978 130.104 347.818 130.104 348.89C130.104 349.818 130.432 350.586 131.088 351.194C131.728 351.802 132.664 352.17 133.896 352.298ZM141 340.588H128.52V338.5H130.608C129.936 338.052 129.376 337.484 128.928 336.796C128.464 336.108 128.232 335.324 128.232 334.444C128.232 333.452 128.472 332.644 128.952 332.02C129.432 331.38 130.072 330.932 130.872 330.676C130.136 330.18 129.512 329.596 129 328.924C128.488 328.236 128.232 327.388 128.232 326.38C128.232 325.02 128.664 324.012 129.528 323.356C130.376 322.684 131.488 322.348 132.864 322.348H141V324.508H133.032C132.168 324.508 131.472 324.708 130.944 325.108C130.4 325.508 130.128 326.06 130.128 326.764C130.128 327.484 130.4 328.156 130.944 328.78C131.472 329.388 132.096 329.924 132.816 330.388H141V332.548H133.032C132.168 332.548 131.472 332.748 130.944 333.148C130.4 333.548 130.128 334.1 130.128 334.804C130.128 335.508 130.392 336.172 130.92 336.796C131.432 337.42 132.04 337.964 132.744 338.428H141V340.588ZM141.288 313.851C141.288 314.891 141.024 315.835 140.496 316.683C139.968 317.531 139.224 318.211 138.264 318.723C137.288 319.219 136.144 319.467 134.832 319.467C133.584 319.467 132.464 319.219 131.472 318.723C130.48 318.211 129.696 317.515 129.12 316.635C128.528 315.739 128.232 314.715 128.232 313.563C128.232 312.843 128.36 312.195 128.616 311.619C128.856 311.027 129.16 310.515 129.528 310.083H128.52V308.115H137.976C138.584 308.115 138.984 307.971 139.176 307.683C139.352 307.379 139.44 307.051 139.44 306.699L141.12 307.155C141.12 308.691 140.496 309.619 139.248 309.939C139.76 310.307 140.232 310.811 140.664 311.451C141.08 312.075 141.288 312.875 141.288 313.851ZM139.368 313.371C139.368 312.763 139.224 312.187 138.936 311.643C138.632 311.099 138.256 310.643 137.808 310.275H131.112C130.808 310.707 130.568 311.187 130.392 311.715C130.2 312.227 130.104 312.771 130.104 313.347C130.104 314.115 130.304 314.795 130.704 315.387C131.088 315.963 131.632 316.419 132.336 316.755C133.024 317.091 133.832 317.259 134.76 317.259C135.656 317.259 136.456 317.091 137.16 316.755C137.848 316.419 138.392 315.955 138.792 315.363C139.176 314.771 139.368 314.107 139.368 313.371ZM141 303.814H128.52V301.654H141V303.814ZM126.384 302.734C126.384 303.15 126.232 303.51 125.928 303.814C125.624 304.102 125.272 304.246 124.872 304.246C124.408 304.246 124.04 304.11 123.768 303.838C123.496 303.566 123.36 303.198 123.36 302.734C123.36 302.318 123.512 301.966 123.816 301.678C124.104 301.374 124.456 301.222 124.872 301.222C125.32 301.222 125.688 301.358 125.976 301.63C126.248 301.902 126.384 302.27 126.384 302.734ZM141.288 294.022C141.288 294.758 141.152 295.422 140.88 296.014C140.592 296.606 140.136 297.078 139.512 297.43C138.888 297.766 138.08 297.934 137.088 297.934H123.24V295.774H136.872C137.736 295.774 138.376 295.598 138.792 295.246C139.208 294.878 139.416 294.374 139.416 293.734C139.416 293.43 139.384 293.134 139.32 292.846C139.24 292.542 139.152 292.286 139.056 292.078L140.808 291.55C140.936 291.838 141.048 292.198 141.144 292.63C141.24 293.046 141.288 293.51 141.288 294.022Z" fill="black"/>
<defs>
<filter id="filter0_b_2111_94" x="-47" y="-47" width="1192" height="742" filterUnits="userSpaceOnUse" color-interpolation-filters="sRGB">
    <feFlood flood-opacity="0" result="BackgroundImageFix"/>
<feGaussianBlur in="BackgroundImageFix" stdDeviation="23.5"/>
<feComposite in2="SourceAlpha" operator="in" result="effect1_backgroundBlur_2111_94"/>
<feBlend mode="normal" in="SourceGraphic" in2="effect1_backgroundBlur_2111_94" result="shape"/>
</filter>
</defs>
</svg>
